<?xml version="1.0" encoding="utf-8"?>
<!-- Generator: Adobe Illustrator 16.0.4, SVG Export Plug-In . SVG Version: 6.00 Build 0)  -->
<!DOCTYPE svg PUBLIC "-//W3C//DTD SVG 1.1//EN" "http://www.w3.org/Graphics/SVG/1.1/DTD/svg11.dtd">
<svg version="1.1" xmlns="http://www.w3.org/2000/svg" xmlns:xlink="http://www.w3.org/1999/xlink" x="0px" y="0px" width="300px"
	 height="300px" viewBox="0 0 300 300" enable-background="new 0 0 300 300" xml:space="preserve">
<g id="Research" display="none">
	
		<image display="inline" overflow="visible" width="474" height="474" xlink:href="../../../../Downloads/d15b72d4d75df80c2d624179538faf6b.jpg"  transform="matrix(1 0 0 1 185.5576 126.1543)">
	</image>
</g>
<g id="borowik_1_" display="none">
</g>
<g id="borowik_research" display="none">
	
		<image display="inline" overflow="visible" width="1280" height="1193" xlink:href="../../../../Downloads/borowik.jpg"  transform="matrix(1 0 0 1 -753 -280)">
	</image>
</g>
<g id="muchomor_czerwony">
	<g>
		<path fill="#8D878B" d="M258.876,106.463c0,0-3.595-1.299-2.335,1.667c1.257,2.966,2.427,2.741,2.427,2.741
			s1.888,0.297,3.034-1.703C263.15,107.166,259.703,106.678,258.876,106.463"/>
		<path fill="#8D878B" d="M269.876,104.463c0,0-3.595-1.299-2.335,1.667c1.257,2.966,2.427,2.741,2.427,2.741
			s1.888,0.297,3.034-1.703C274.15,105.166,270.703,104.678,269.876,104.463"/>
		<path fill="#FCE8B9" d="M76.239,271.354c0,0-82.749,5.867-69.433-83.539S78.125,121.758,100,61.333
			c13.524-37.357,87.521-60.892,136.98-35.211c49.458,25.681,112.233,231.912-15.218,245.31L76.239,271.354"/>
		<g>
			<defs>
				<path id="SVGID_7_" d="M76.239,271.354c0,0-82.749,5.867-69.433-83.539S78.125,121.758,100,61.333
					c13.524-37.357,87.521-60.892,136.98-35.211c49.458,25.681,112.233,231.912-15.218,245.31L76.239,271.354"/>
			</defs>
			<clipPath id="SVGID_1_">
				<use xlink:href="#SVGID_7_"  overflow="visible"/>
			</clipPath>
			<path clip-path="url(#SVGID_1_)" fill="#8D878B" d="M241.034,94.039c0,0-3.818,0.149-1.537,2.424
				c2.28,2.275,3.28,1.627,3.28,1.627s1.86-0.436,2.171-2.72C245.259,93.084,241.882,93.928,241.034,94.039"/>
			<path clip-path="url(#SVGID_1_)" fill="#8D878B" d="M258.034,97.039c0,0-3.818,0.149-1.537,2.424
				c2.28,2.275,3.28,1.627,3.28,1.627s1.86-0.436,2.171-2.72C262.259,96.084,258.882,96.928,258.034,97.039"/>
			<path clip-path="url(#SVGID_1_)" fill="#E5DABE" d="M169.526,143.58l-13.343,8.663c0,0,0.464,13.783,40.884,4.164l-11.697-11.051
				L169.526,143.58"/>
			<path clip-path="url(#SVGID_1_)" fill="#E5DABE" d="M170.411,126.576c0,0-4.441,7.699-2.715,34.65
				c1.727,26.95-1.057,67.245-5.709,81.106s25.279,0,25.279,0s0.271-50.3-0.576-72.124c-0.574-14.79,1.395-34.069,5.469-47.483
				L170.411,126.576"/>
			
				<linearGradient id="SVGID_2_" gradientUnits="userSpaceOnUse" x1="795" y1="-956.9995" x2="796" y2="-956.9995" gradientTransform="matrix(-5.497475e-06 -125.7676 -125.7676 5.497475e-06 -120182.9375 100233.7344)">
				<stop  offset="0" style="stop-color:#FCE8B9"/>
				<stop  offset="0.1501" style="stop-color:#FCE8B9"/>
				<stop  offset="0.5162" style="stop-color:#D6C59D"/>
				<stop  offset="0.8157" style="stop-color:#BEAE8B"/>
				<stop  offset="1" style="stop-color:#B5A684"/>
			</linearGradient>
			<path clip-path="url(#SVGID_1_)" fill="url(#SVGID_2_)" d="M186.66,169.335c0,0.001,0,0.002,0,0.003
				C186.66,169.337,186.66,169.336,186.66,169.335 M186.657,169.243c0,0.002,0,0.005,0,0.007
				C186.657,169.248,186.657,169.245,186.657,169.243 M186.652,169.104c0.001,0.021,0.001,0.041,0.002,0.062
				C186.654,169.146,186.653,169.125,186.652,169.104 M167.685,161.054c0.004,0.058,0.007,0.115,0.011,0.173
				C167.692,161.169,167.689,161.111,167.685,161.054 M186.727,158.525L186.727,158.525c-0.148,3.652-0.174,7.209-0.075,10.556
				C186.552,165.734,186.579,162.178,186.727,158.525 M189.452,158.04c-0.006,0.001-0.019,0.004-0.025,0.005
				C189.435,158.043,189.443,158.042,189.452,158.04 M189.591,158.014c-0.009,0.002-0.015,0.003-0.024,0.005
				C189.576,158.017,189.583,158.016,189.591,158.014 M189.682,157.996c-0.011,0.002-0.024,0.005-0.035,0.007
				C189.659,158.001,189.67,157.999,189.682,157.996 M189.796,157.975c-0.022,0.004-0.039,0.008-0.061,0.012
				C189.755,157.982,189.775,157.979,189.796,157.975 M189.916,157.952c-0.024,0.004-0.047,0.009-0.071,0.013
				C189.869,157.961,189.893,157.956,189.916,157.952 M190.033,157.93c-0.028,0.005-0.055,0.01-0.083,0.016
				C189.977,157.94,190.005,157.935,190.033,157.93 M196.94,156.438c-2.445,0.58-4.74,1.073-6.9,1.49
				C192.2,157.512,194.497,157.018,196.94,156.438 M197.067,156.407c-0.04,0.01-0.079,0.019-0.118,0.028
				C196.988,156.426,197.028,156.417,197.067,156.407 M156.184,152.243L156.184,152.243L156.184,152.243 M156.184,152.243
				L156.184,152.243L156.184,152.243 M167.373,144.978l-11.189,7.266l0,0L167.373,144.978
				C167.373,144.978,167.373,144.979,167.373,144.978 M190.092,130.823c-1.115,5.204-1.976,10.864-2.565,16.571l0.006,0.006
				c0.589-5.708,1.447-11.371,2.561-16.577H190.092"/>
			
				<linearGradient id="SVGID_3_" gradientUnits="userSpaceOnUse" x1="795" y1="-956.9995" x2="796" y2="-956.9995" gradientTransform="matrix(-5.497475e-06 -125.7676 -125.7676 5.497475e-06 -120182.9375 100233.7344)">
				<stop  offset="0" style="stop-color:#E5DABE"/>
				<stop  offset="0.1501" style="stop-color:#E5DABE"/>
				<stop  offset="0.484" style="stop-color:#C5BBA3"/>
				<stop  offset="0.8033" style="stop-color:#ADA48F"/>
				<stop  offset="1" style="stop-color:#A49C88"/>
			</linearGradient>
			<path clip-path="url(#SVGID_1_)" fill="url(#SVGID_3_)" d="M187.527,147.395c-0.385,3.729-0.653,7.478-0.801,11.131h0l0,0
				c0.875-0.146,1.774-0.307,2.7-0.48c0.006-0.001,0.019-0.004,0.025-0.005c0.039-0.007,0.077-0.015,0.116-0.021
				c0.009-0.002,0.015-0.003,0.024-0.005c0.019-0.004,0.037-0.007,0.056-0.011c0.011-0.002,0.024-0.005,0.035-0.007
				c0.018-0.003,0.035-0.006,0.053-0.01c0.021-0.004,0.039-0.008,0.061-0.012c0.016-0.003,0.033-0.006,0.049-0.01
				c0.024-0.004,0.047-0.009,0.071-0.013c0.011-0.003,0.022-0.005,0.033-0.007c0.028-0.006,0.055-0.011,0.083-0.016
				c0.002-0.001,0.005-0.002,0.008-0.002c2.16-0.417,4.455-0.91,6.9-1.49c0.003-0.001,0.006-0.001,0.009-0.002
				c0.039-0.01,0.079-0.019,0.118-0.028l0,0l-9.534-9.007l0,0L187.527,147.395 M167.373,144.979l-11.189,7.265l0,0l0,0l0,0v0.001
				c0.004,0.09,0.295,5.815,11.408,7.247C167.272,153.787,167.236,148.99,167.373,144.979"/>
			
				<linearGradient id="SVGID_4_" gradientUnits="userSpaceOnUse" x1="795" y1="-957.0049" x2="796" y2="-957.0049" gradientTransform="matrix(-5.497475e-06 -125.7676 -125.7676 5.497475e-06 -120182.9375 100233.7344)">
				<stop  offset="0" style="stop-color:#E5DABE"/>
				<stop  offset="0.1501" style="stop-color:#E5DABE"/>
				<stop  offset="0.484" style="stop-color:#C5BBA3"/>
				<stop  offset="0.8033" style="stop-color:#ADA48F"/>
				<stop  offset="1" style="stop-color:#A49C88"/>
			</linearGradient>
			<path clip-path="url(#SVGID_1_)" fill="url(#SVGID_4_)" d="M169.446,129.148c-0.779,2.649-1.791,7.577-2.072,15.828l-0.001,0.001
				c0,0.001,0,0,0,0.001c-0.136,4.012-0.1,8.809,0.219,14.513c0.001,0,0.002,0,0.003,0c0.028,0.518,0.057,1.033,0.09,1.562
				c0.004,0.058,0.007,0.115,0.011,0.173l0,0c0.353,5.5,0.517,11.557,0.516,17.831c-0.002,18.504-1.444,38.902-3.749,52.518
				c3.722-0.865,7.591-1.322,11.565-1.322c3.868,0,7.642,0.438,11.272,1.268c0.004-2.236,0.007-4.741,0.007-7.438
				c0-16.625-0.1-40.554-0.618-53.874l0,0c-0.011-0.289-0.021-0.579-0.031-0.871c0-0.001,0-0.002,0-0.003
				c-0.001-0.028-0.002-0.057-0.003-0.085c0-0.002,0-0.005,0-0.007c-0.001-0.026-0.001-0.052-0.002-0.077
				c0-0.021-0.001-0.041-0.002-0.062c0-0.008,0-0.016,0-0.023c-0.1-3.347-0.073-6.903,0.074-10.556
				c0.147-3.653,0.416-7.402,0.801-11.131c0.589-5.707,1.45-11.367,2.565-16.571C182.632,130.389,175.767,129.822,169.446,129.148"
				/>
			<path clip-path="url(#SVGID_1_)" fill="#E5DABE" d="M122.495,202.875c0.762-0.382,1.534-0.788,2.323-1.239l-7.163-7.291
				l-11.314,2.904l-5.28,0.55l0.45,0.727l-1.51,0.424v6.907c0,0,1.555,0.692,4.557,0.955c1.334,6.047,4.404,21.934,3.486,33.965
				c0,0,12.63,5.756,18.286,2.495C131.246,240.437,131.7,218.915,122.495,202.875"/>
			
				<linearGradient id="SVGID_5_" gradientUnits="userSpaceOnUse" x1="795" y1="-956.9961" x2="796" y2="-956.9961" gradientTransform="matrix(-2.182368e-06 -49.9268 -49.9268 2.182368e-06 -47665 39936.0586)">
				<stop  offset="0" style="stop-color:#E5DABE"/>
				<stop  offset="0.1501" style="stop-color:#E5DABE"/>
				<stop  offset="0.484" style="stop-color:#C5BBA3"/>
				<stop  offset="0.8033" style="stop-color:#ADA48F"/>
				<stop  offset="1" style="stop-color:#A49C88"/>
			</linearGradient>
			<path clip-path="url(#SVGID_1_)" fill="url(#SVGID_5_)" d="M119.026,195.74c-0.649,0.36-1.342,0.702-2.081,1.024
				c-6.954,3.032-12.51,4.999-16.945,5.784v3.308c0,0,1.555,0.692,4.557,0.955c1.024,4.644,3.072,15.088,3.552,25.134
				c4.779-4.635,11.203-7.474,18.267-7.474c1.03,0,2.045,0.061,3.045,0.178c-0.803-6.994-2.975-14.889-6.926-21.774l0,0l0,0
				c0.762-0.382,1.534-0.788,2.323-1.239L119.026,195.74"/>
			<path clip-path="url(#SVGID_1_)" fill="#E6D8DD" d="M96.688,157.216c0,0-14.46,6.076-13.301,24.695
				c1.419,22.817,8.252,25.888,33.558,14.854C142.252,185.731,114.327,150.874,96.688,157.216"/>
			<path clip-path="url(#SVGID_1_)" fill="#DAC7A0" d="M99.202,156.593c-0.867,0.123-1.718,0.33-2.547,0.628
				c0,0-7.918,3.335-11.563,12.617c0.007,0.002,0.014,0.004,0.021,0.006c3.644-9.294,11.576-12.628,11.576-12.628
				C97.507,156.922,98.346,156.716,99.202,156.593"/>
			<path clip-path="url(#SVGID_1_)" fill="#8D878B" d="M118.993,168.812c0,0-2.146-2.303-2.341,0.343
				c-0.196,2.646,0.745,2.922,0.745,2.922s1.271,0.928,2.865-0.104C121.857,170.938,119.517,169.283,118.993,168.812"/>
			<path clip-path="url(#SVGID_1_)" fill="#8D878B" d="M114.936,172.896c0,0-2.146-2.305-2.341,0.343
				c-0.195,2.646,0.745,2.922,0.745,2.922s1.271,0.927,2.864-0.104C117.8,175.022,115.459,173.365,114.936,172.896"/>
			<path clip-path="url(#SVGID_1_)" fill="#8D878B" d="M120.989,182.482c0,0-2.146-2.306-2.342,0.341
				c-0.194,2.646,0.746,2.923,0.746,2.923s1.271,0.928,2.866-0.105C123.854,184.609,121.513,182.952,120.989,182.482"/>
			<path clip-path="url(#SVGID_1_)" fill="#8D878B" d="M88.303,173.294c0,0,1.397-2.821,2.341-0.342
				c0.944,2.48,0.121,3.015,0.121,3.015s-0.952,1.252-2.775,0.719C86.167,176.15,87.935,173.895,88.303,173.294"/>
			<path clip-path="url(#SVGID_1_)" fill="#8D878B" d="M91.121,182.438c0,0,1.696-3.426,2.841-0.414
				c1.146,3.01,0.147,3.658,0.147,3.658s-1.157,1.521-3.369,0.873C88.526,185.906,90.674,183.168,91.121,182.438"/>
			<path clip-path="url(#SVGID_1_)" fill="#8D878B" d="M87.729,191.078c0,0,1.696-3.426,2.841-0.415
				c1.146,3.011,0.147,3.659,0.147,3.659s-1.156,1.521-3.368,0.872C85.136,194.546,87.283,191.808,87.729,191.078"/>
			<path clip-path="url(#SVGID_1_)" fill="#8D878B" d="M99.568,176.552c0,0,1.695-3.427,2.841-0.414
				c1.146,3.009,0.147,3.658,0.147,3.658s-1.155,1.521-3.368,0.872C96.975,180.02,99.122,177.28,99.568,176.552"/>
			<path clip-path="url(#SVGID_1_)" fill="#8D878B" d="M102.537,188.916c0,0,1.695-3.427,2.841-0.415
				c1.147,3.01,0.147,3.658,0.147,3.658s-1.156,1.521-3.369,0.873C99.944,192.384,102.09,189.644,102.537,188.916"/>
			
				<linearGradient id="SVGID_6_" gradientUnits="userSpaceOnUse" x1="795" y1="-956.9995" x2="796" y2="-956.9995" gradientTransform="matrix(43.814 0.8589 0.8589 -43.814 -33926.8164 -42433.4258)">
				<stop  offset="0" style="stop-color:#E6D8DD"/>
				<stop  offset="0.5002" style="stop-color:#AAA0A4"/>
				<stop  offset="1" style="stop-color:#736C6E"/>
			</linearGradient>
			<path clip-path="url(#SVGID_1_)" fill="url(#SVGID_6_)" d="M88.417,195.355c-0.323,0-0.679-0.047-1.068-0.161
				c-2.214-0.648-0.066-3.387,0.38-4.116c0,0,0.819-1.653,1.702-1.653c0.389,0,0.789,0.319,1.139,1.238
				c1.146,3.011,0.147,3.659,0.147,3.659S89.932,195.355,88.417,195.355 M103.224,193.193c-0.323,0-0.679-0.047-1.067-0.161
				c-2.212-0.648-0.066-3.389,0.381-4.116c0,0,0.818-1.653,1.702-1.654c0.389,0,0.79,0.319,1.139,1.239
				c1.147,3.01,0.147,3.658,0.147,3.658S104.74,193.193,103.224,193.193 M120.716,186.129c-0.798,0-1.322-0.383-1.322-0.383
				s-0.94-0.276-0.746-2.923c0.071-0.965,0.402-1.271,0.793-1.271c0.682,0,1.548,0.931,1.548,0.931
				c0.523,0.47,2.864,2.127,1.271,3.158C121.689,186.01,121.16,186.129,120.716,186.129 M91.808,186.717
				c-0.323,0-0.679-0.047-1.067-0.161c-2.214-0.649-0.066-3.388,0.381-4.117c0,0,0.819-1.653,1.702-1.653
				c0.388,0,0.789,0.319,1.139,1.239c1.146,3.01,0.147,3.658,0.147,3.658S93.323,186.717,91.808,186.717 M100.257,180.829
				c-0.323,0-0.679-0.047-1.068-0.161c-2.214-0.648-0.066-3.388,0.38-4.116c0,0,0.818-1.653,1.702-1.653
				c0.388,0,0.79,0.319,1.139,1.239c1.146,3.009,0.147,3.658,0.147,3.658S101.771,180.829,100.257,180.829 M114.663,176.543
				c-0.798,0-1.323-0.383-1.323-0.383s-0.94-0.275-0.745-2.922c0.071-0.966,0.401-1.272,0.793-1.272c0.682,0,1.548,0.93,1.548,0.93
				c0.523,0.47,2.864,2.127,1.269,3.16C115.635,176.424,115.106,176.543,114.663,176.543 M88.869,176.817
				c-0.266,0-0.559-0.038-0.879-0.132c-1.822-0.535-0.055-2.791,0.313-3.392c0,0,0.674-1.361,1.402-1.362
				c0.32,0,0.65,0.264,0.938,1.021c0.944,2.48,0.121,3.015,0.121,3.015S90.117,176.817,88.869,176.817 M118.72,172.459
				c-0.798,0-1.323-0.383-1.323-0.383s-0.941-0.276-0.745-2.922c0.071-0.965,0.402-1.271,0.793-1.271
				c0.682,0,1.547,0.929,1.547,0.929c0.523,0.472,2.864,2.127,1.27,3.16C119.692,172.341,119.164,172.459,118.72,172.459
				 M101.218,156.451c-0.68,0-1.352,0.046-2.016,0.142c0.653-0.093,1.314-0.138,1.982-0.138c5.9,0,12.292,3.495,17.247,8.504
				c-4.254,2.543-9.113,4.412-13.266,5.191c-3.328,0.624-6.82,1.046-10.292,1.046c-3.326,0-6.634-0.387-9.76-1.353
				c-1.088,2.776-1.793,6.084-1.791,9.994c0,0.673,0.022,1.364,0.066,2.073c0.901,14.497,3.991,21.024,12.613,21.024
				c4.948,0,11.717-2.147,20.944-6.171c7.256-3.164,10.136-8.288,10.136-13.837C127.083,170.72,113.143,156.451,101.218,156.451"/>
			
				<linearGradient id="SVGID_8_" gradientUnits="userSpaceOnUse" x1="795" y1="-956.6377" x2="796" y2="-956.6377" gradientTransform="matrix(43.814 0.8589 0.8589 -43.814 -33926.8164 -42433.4258)">
				<stop  offset="0" style="stop-color:#C7B9BF"/>
				<stop  offset="0.3689" style="stop-color:#A1959A"/>
				<stop  offset="1" style="stop-color:#635C5F"/>
			</linearGradient>
			<path clip-path="url(#SVGID_1_)" fill="url(#SVGID_8_)" d="M101.184,156.455c-0.668,0-1.329,0.045-1.982,0.138
				c-0.856,0.123-1.695,0.329-2.514,0.623c0,0-7.933,3.334-11.576,12.628c3.126,0.966,6.435,1.353,9.76,1.353
				c3.473,0,6.965-0.422,10.292-1.046c4.152-0.779,9.012-2.648,13.266-5.191C113.477,159.95,107.084,156.455,101.184,156.455"/>
			
				<linearGradient id="SVGID_9_" gradientUnits="userSpaceOnUse" x1="795" y1="-956.7734" x2="796" y2="-956.7734" gradientTransform="matrix(43.814 0.8589 0.8589 -43.814 -33926.8164 -42433.4258)">
				<stop  offset="0" style="stop-color:#8D878B"/>
				<stop  offset="0.0708" style="stop-color:#888286"/>
				<stop  offset="1" style="stop-color:#464345"/>
			</linearGradient>
			<path clip-path="url(#SVGID_1_)" fill="url(#SVGID_9_)" d="M117.446,167.883c-0.392,0-0.723,0.307-0.793,1.271
				c-0.196,2.646,0.745,2.922,0.745,2.922s0.525,0.383,1.323,0.383c0.444,0,0.972-0.118,1.542-0.487
				c1.595-1.033-0.746-2.688-1.27-3.16C118.993,168.812,118.127,167.883,117.446,167.883"/>
			
				<linearGradient id="SVGID_10_" gradientUnits="userSpaceOnUse" x1="795" y1="-956.8682" x2="796" y2="-956.8682" gradientTransform="matrix(43.814 0.8589 0.8589 -43.814 -33926.8164 -42433.4258)">
				<stop  offset="0" style="stop-color:#8D878B"/>
				<stop  offset="0.0708" style="stop-color:#888286"/>
				<stop  offset="1" style="stop-color:#464345"/>
			</linearGradient>
			<path clip-path="url(#SVGID_1_)" fill="url(#SVGID_10_)" d="M113.388,171.966c-0.392,0-0.722,0.307-0.793,1.272
				c-0.195,2.646,0.745,2.922,0.745,2.922s0.525,0.383,1.323,0.383c0.444,0,0.972-0.119,1.542-0.487
				c1.596-1.033-0.745-2.69-1.269-3.16C114.936,172.896,114.069,171.966,113.388,171.966"/>
			
				<linearGradient id="SVGID_11_" gradientUnits="userSpaceOnUse" x1="795" y1="-957.085" x2="796" y2="-957.085" gradientTransform="matrix(43.814 0.8589 0.8589 -43.814 -33926.8164 -42433.4258)">
				<stop  offset="0" style="stop-color:#8D878B"/>
				<stop  offset="0.0708" style="stop-color:#888286"/>
				<stop  offset="1" style="stop-color:#464345"/>
			</linearGradient>
			<path clip-path="url(#SVGID_1_)" fill="url(#SVGID_11_)" d="M119.441,181.552c-0.392,0-0.722,0.307-0.793,1.271
				c-0.194,2.646,0.746,2.923,0.746,2.923s0.524,0.383,1.322,0.383c0.444,0,0.973-0.119,1.544-0.488
				c1.594-1.031-0.747-2.688-1.271-3.158C120.989,182.482,120.123,181.552,119.441,181.552"/>
			
				<linearGradient id="SVGID_12_" gradientUnits="userSpaceOnUse" x1="795" y1="-956.8828" x2="796" y2="-956.8828" gradientTransform="matrix(43.814 0.8589 0.8589 -43.814 -33926.8164 -42433.4258)">
				<stop  offset="0" style="stop-color:#8D878B"/>
				<stop  offset="0.0708" style="stop-color:#888286"/>
				<stop  offset="1" style="stop-color:#464345"/>
			</linearGradient>
			<path clip-path="url(#SVGID_1_)" fill="url(#SVGID_12_)" d="M89.705,171.932c-0.728,0.001-1.402,1.362-1.402,1.362
				c-0.368,0.601-2.136,2.856-0.313,3.392c0.32,0.094,0.613,0.132,0.879,0.132c1.249,0,1.896-0.851,1.896-0.851
				s0.823-0.534-0.121-3.015C90.355,172.195,90.025,171.932,89.705,171.932"/>
			
				<linearGradient id="SVGID_13_" gradientUnits="userSpaceOnUse" x1="795" y1="-957.0947" x2="796" y2="-957.0947" gradientTransform="matrix(43.814 0.8589 0.8589 -43.814 -33926.8164 -42433.4258)">
				<stop  offset="0" style="stop-color:#8D878B"/>
				<stop  offset="0.0708" style="stop-color:#888286"/>
				<stop  offset="1" style="stop-color:#464345"/>
			</linearGradient>
			<path clip-path="url(#SVGID_1_)" fill="url(#SVGID_13_)" d="M92.823,180.785c-0.883,0-1.702,1.653-1.702,1.653
				c-0.447,0.729-2.595,3.468-0.381,4.117c0.389,0.114,0.745,0.161,1.067,0.161c1.515,0,2.302-1.034,2.302-1.034
				s0.999-0.648-0.147-3.658C93.612,181.104,93.211,180.785,92.823,180.785"/>
			
				<linearGradient id="SVGID_14_" gradientUnits="userSpaceOnUse" x1="795" y1="-957.2935" x2="796" y2="-957.2935" gradientTransform="matrix(43.814 0.8589 0.8589 -43.814 -33926.8164 -42433.4258)">
				<stop  offset="0" style="stop-color:#8D878B"/>
				<stop  offset="0.0708" style="stop-color:#888286"/>
				<stop  offset="1" style="stop-color:#464345"/>
			</linearGradient>
			<path clip-path="url(#SVGID_1_)" fill="url(#SVGID_14_)" d="M89.432,189.425c-0.883,0-1.702,1.653-1.702,1.653
				c-0.446,0.729-2.594,3.468-0.38,4.116c0.389,0.114,0.745,0.161,1.068,0.161c1.515,0,2.3-1.033,2.3-1.033s0.999-0.648-0.147-3.659
				C90.221,189.744,89.82,189.425,89.432,189.425"/>
			
				<linearGradient id="SVGID_15_" gradientUnits="userSpaceOnUse" x1="795" y1="-956.957" x2="796" y2="-956.957" gradientTransform="matrix(43.814 0.8589 0.8589 -43.814 -33926.8164 -42433.4258)">
				<stop  offset="0" style="stop-color:#8D878B"/>
				<stop  offset="0.0708" style="stop-color:#888286"/>
				<stop  offset="1" style="stop-color:#464345"/>
			</linearGradient>
			<path clip-path="url(#SVGID_1_)" fill="url(#SVGID_15_)" d="M101.27,174.898c-0.883,0-1.702,1.653-1.702,1.653
				c-0.446,0.729-2.594,3.468-0.38,4.116c0.389,0.114,0.745,0.161,1.068,0.161c1.515,0,2.3-1.033,2.3-1.033s0.999-0.649-0.147-3.658
				C102.06,175.218,101.658,174.898,101.27,174.898"/>
			
				<linearGradient id="SVGID_16_" gradientUnits="userSpaceOnUse" x1="795" y1="-957.2378" x2="796" y2="-957.2378" gradientTransform="matrix(43.814 0.8589 0.8589 -43.814 -33926.8164 -42433.4258)">
				<stop  offset="0" style="stop-color:#8D878B"/>
				<stop  offset="0.0708" style="stop-color:#888286"/>
				<stop  offset="1" style="stop-color:#464345"/>
			</linearGradient>
			<path clip-path="url(#SVGID_1_)" fill="url(#SVGID_16_)" d="M104.239,187.262c-0.883,0.001-1.702,1.654-1.702,1.654
				c-0.447,0.728-2.593,3.468-0.381,4.116c0.389,0.114,0.745,0.161,1.067,0.161c1.516,0,2.302-1.034,2.302-1.034
				s1-0.648-0.147-3.658C105.028,187.581,104.627,187.262,104.239,187.262"/>
			<g clip-path="url(#SVGID_1_)">
				<defs>
					<polyline id="SVGID_23_" points="245,272 68,272 68,210 245,210 245,272 					"/>
				</defs>
				<clipPath id="SVGID_17_">
					<use xlink:href="#SVGID_23_"  overflow="visible"/>
				</clipPath>
				<path clip-path="url(#SVGID_17_)" fill="#B39B19" d="M99.911,248.236c1.841-13.433,12.986-23.765,26.465-23.765
					c9.701,0,18.196,5.353,22.882,13.361c7.842-4.814,16.994-7.58,26.771-7.58c29.046,0,52.592,24.66,52.592,54.742
					c0,1.254-0.044,2.005-0.125,4.005H86.103c-2.471-5-3.898-9.351-3.898-14.603C82.204,262.433,89.599,251.991,99.911,248.236"/>
				
					<radialGradient id="SVGID_18_" cx="795" cy="-957" r="1" gradientTransform="matrix(56.5704 0 0 -56.5704 -44818.0898 -53881.1562)" gradientUnits="userSpaceOnUse">
					<stop  offset="0" style="stop-color:#B39B19"/>
					<stop  offset="1" style="stop-color:#7E650F"/>
				</radialGradient>
				<path clip-path="url(#SVGID_17_)" fill="url(#SVGID_18_)" d="M126.376,224.472c-13.479,0-24.624,10.332-26.465,23.765
					c-9.428,3.433-16.417,12.455-17.547,23.12l139.397,0.075c1.719-0.181,3.406-0.396,5.057-0.646
					c-6.029-23.263-26.484-40.532-50.789-40.532c-9.777,0-18.93,2.766-26.771,7.58C144.572,229.824,136.077,224.472,126.376,224.472
					"/>
			</g>
			<path clip-path="url(#SVGID_1_)" fill="#E6D8DD" d="M96.274,99.524c0,0,0.816,28.957,110.947,32.027
				c110.13,3.07,65.233-28.396,42.978-36.07c-22.257-7.675-38.374-7.675-48.351-16.885s-18.419-8.443-34.536,0
				C151.196,87.039,112.728,72.867,96.274,99.524"/>
			<path clip-path="url(#SVGID_1_)" fill="#8D878B" d="M177.759,83.885c6.89,2.083,14.029,3.275,21.227,3.538
				c6.431,0.235,12.801-0.056,19.123-0.722c-6.55-1.896-11.976-4.149-16.26-8.104c-9.977-9.21-18.419-8.443-34.536,0
				c-0.126,0.066-0.264,0.118-0.393,0.181C168.278,81.234,175.794,83.291,177.759,83.885"/>
			<path clip-path="url(#SVGID_1_)" fill="#8D878B" d="M164.28,84.599c0,0,3.632-1.191,2.287,1.736
				c-1.344,2.927-2.506,2.669-2.506,2.669s-1.896,0.241-2.983-1.791C159.988,85.179,163.447,84.791,164.28,84.599"/>
			<path clip-path="url(#SVGID_1_)" fill="#8D878B" d="M148.691,88.283c0,0,3.818,0.149,1.536,2.424
				c-2.279,2.275-3.279,1.627-3.279,1.627s-1.86-0.436-2.171-2.72C144.466,87.328,147.844,88.172,148.691,88.283"/>
			<path clip-path="url(#SVGID_1_)" fill="#8D878B" d="M129.121,87.132c0,0,3.818,0.149,1.536,2.424
				c-2.279,2.275-3.279,1.627-3.279,1.627s-1.86-0.436-2.171-2.72C124.896,86.178,128.273,87.021,129.121,87.132"/>
			<path clip-path="url(#SVGID_1_)" fill="#8D878B" d="M136.121,81.132c0,0,3.818,0.149,1.536,2.424
				c-2.279,2.275-3.279,1.627-3.279,1.627s-1.86-0.436-2.171-2.72C131.896,80.178,135.273,81.021,136.121,81.132"/>
			<path clip-path="url(#SVGID_1_)" fill="#8D878B" d="M104.121,90.132c0,0,3.818,0.149,1.536,2.424
				c-2.279,2.275-3.279,1.627-3.279,1.627s-1.86-0.436-2.171-2.72C99.896,89.178,103.273,90.021,104.121,90.132"/>
			<path clip-path="url(#SVGID_1_)" fill="#8D878B" d="M111.279,99.556c0,0,3.595-1.299,2.335,1.667
				c-1.257,2.966-2.427,2.741-2.427,2.741s-1.888,0.297-3.034-1.703C107.005,100.259,110.452,99.771,111.279,99.556"/>
			<path clip-path="url(#SVGID_1_)" fill="#8D878B" d="M134.304,101.857c0,0,3.594-1.298,2.335,1.668
				c-1.257,2.966-2.428,2.74-2.428,2.74s-1.888,0.297-3.034-1.703C130.029,102.562,133.476,102.072,134.304,101.857"/>
			<path clip-path="url(#SVGID_1_)" fill="#8D878B" d="M158.479,100.707c0,0,3.594-1.299,2.335,1.667
				c-1.257,2.966-2.427,2.741-2.427,2.741s-1.888,0.296-3.034-1.704C154.204,101.41,157.651,100.922,158.479,100.707"/>
			<path clip-path="url(#SVGID_1_)" fill="#8D878B" d="M177.819,91.467c0,0,3.374-1.796,2.549,1.318
				c-0.823,3.114-2.014,3.059-2.014,3.059s-1.826,0.562-3.245-1.256C173.689,92.77,177.031,91.796,177.819,91.467"/>
			<path clip-path="url(#SVGID_1_)" fill="#8D878B" d="M153.645,115.642c0,0,3.374-1.795,2.549,1.319
				c-0.823,3.113-2.014,3.058-2.014,3.058s-1.827,0.562-3.246-1.256C149.514,116.945,152.856,115.972,153.645,115.642"/>
			<path clip-path="url(#SVGID_1_)" fill="#8D878B" d="M205.874,91.506c0,0-3.631-1.191-2.286,1.736
				c1.344,2.927,2.506,2.669,2.506,2.669s1.896,0.241,2.983-1.791C210.167,92.086,206.708,91.698,205.874,91.506"/>
			<path clip-path="url(#SVGID_1_)" fill="#8D878B" d="M221.464,95.19c0,0-3.818,0.149-1.537,2.424
				c2.28,2.275,3.279,1.626,3.279,1.626s1.861-0.435,2.172-2.719C225.688,94.235,222.312,95.079,221.464,95.19"/>
			<path clip-path="url(#SVGID_1_)" fill="#8D878B" d="M244.464,99.19c0,0-3.818,0.149-1.537,2.424
				c2.28,2.275,3.279,1.626,3.279,1.626s1.861-0.435,2.172-2.719C248.688,98.235,245.312,99.079,244.464,99.19"/>
			<path clip-path="url(#SVGID_1_)" fill="#8D878B" d="M258.464,97.19c0,0-3.818,0.149-1.537,2.424
				c2.28,2.275,3.279,1.626,3.279,1.626s1.861-0.435,2.172-2.719C262.688,96.235,259.312,97.079,258.464,97.19"/>
			<path clip-path="url(#SVGID_1_)" fill="#8D878B" d="M254.464,109.19c0,0-3.818,0.149-1.537,2.424
				c2.28,2.275,3.279,1.626,3.279,1.626s1.861-0.435,2.172-2.719C258.688,108.235,255.312,109.079,254.464,109.19"/>
			<path clip-path="url(#SVGID_1_)" fill="#8D878B" d="M242.464,121.19c0,0-3.818,0.149-1.537,2.424
				c2.28,2.275,3.279,1.626,3.279,1.626s1.861-0.435,2.172-2.719C246.688,120.235,243.312,121.079,242.464,121.19"/>
			<path clip-path="url(#SVGID_1_)" fill="#8D878B" d="M235.852,108.765c0,0-3.594-1.298-2.335,1.668
				c1.257,2.966,2.428,2.74,2.428,2.74s1.887,0.297,3.034-1.703C240.126,109.469,236.679,108.979,235.852,108.765"/>
			<path clip-path="url(#SVGID_1_)" fill="#8D878B" d="M211.677,107.614c0,0-3.595-1.299-2.335,1.667
				c1.257,2.966,2.427,2.74,2.427,2.74s1.888,0.297,3.034-1.703C215.951,108.317,212.504,107.828,211.677,107.614"/>
			<path clip-path="url(#SVGID_1_)" fill="#8D878B" d="M192.335,98.374c0,0-3.373-1.796-2.548,1.318
				c0.823,3.114,2.014,3.058,2.014,3.058s1.826,0.562,3.245-1.255C196.466,99.677,193.124,98.703,192.335,98.374"/>
			<path clip-path="url(#SVGID_1_)" fill="#8D878B" d="M180.45,108.495c0,0,1.255-3.609-1.695-2.315
				c-2.95,1.293-2.712,2.459-2.712,2.459s-0.274,1.893,1.74,3.015C179.798,112.776,180.245,109.325,180.45,108.495"/>
			<path clip-path="url(#SVGID_1_)" fill="#8D878B" d="M191.894,119.556c0,0,0.471-3.794-2.143-1.91
				c-2.613,1.883-2.136,2.974-2.136,2.974s0.128,1.907,2.333,2.582C192.153,123.878,191.868,120.41,191.894,119.556"/>
			<path clip-path="url(#SVGID_1_)" fill="#8D878B" d="M216.511,122.549c0,0-3.374-1.795-2.549,1.319
				c0.823,3.113,2.014,3.058,2.014,3.058s1.827,0.562,3.246-1.256C220.642,123.852,217.299,122.879,216.511,122.549"/>
			
				<linearGradient id="SVGID_19_" gradientUnits="userSpaceOnUse" x1="795.0005" y1="-957.0186" x2="796.0005" y2="-957.0186" gradientTransform="matrix(182.0825 0 0 -182.0825 -144659.3594 -174151.0938)">
				<stop  offset="0" style="stop-color:#FCE8B9"/>
				<stop  offset="0.5283" style="stop-color:#B7A986"/>
				<stop  offset="1" style="stop-color:#7E745C"/>
			</linearGradient>
			<path clip-path="url(#SVGID_1_)" fill="url(#SVGID_19_)" d="M210.642,131.637c1.597,0.035,3.158,0.062,4.688,0.083
				C213.805,131.699,212.234,131.672,210.642,131.637 M268.392,104.183c-0.256,0-0.502,0.037-0.698,0.138
				c1.698,1.168,3.287,2.389,4.691,3.641c0.217-0.217,0.428-0.465,0.616-0.793c1.148-2.002-2.299-2.49-3.126-2.705
				C269.876,104.463,269.098,104.183,268.392,104.183 M96.317,99.455c-0.014,0.022-0.028,0.046-0.043,0.069l0,0
				C96.289,99.502,96.304,99.478,96.317,99.455 M96.362,99.383c-0.011,0.018-0.022,0.035-0.033,0.053
				C96.341,99.418,96.351,99.4,96.362,99.383 M96.413,99.303c-0.013,0.02-0.025,0.04-0.038,0.061
				C96.388,99.342,96.399,99.323,96.413,99.303 M96.45,99.243c-0.004,0.007-0.008,0.013-0.012,0.02
				C96.442,99.256,96.446,99.25,96.45,99.243 M252.362,96.275h0.001C252.363,96.275,252.363,96.275,252.362,96.275 M250.25,95.499
				c0.666,0.23,1.348,0.48,2.048,0.751C251.598,95.979,250.914,95.729,250.25,95.499 M100.215,91.523
				c0,0.003,0.001,0.006,0.001,0.008C100.216,91.529,100.216,91.526,100.215,91.523 M100.212,91.497
				c0,0.004,0.001,0.009,0.002,0.013C100.213,91.506,100.212,91.501,100.212,91.497 M100.207,91.463
				c0.001,0.008,0.002,0.016,0.003,0.023C100.209,91.479,100.208,91.471,100.207,91.463 M103.952,90.106
				c0.064,0.01,0.121,0.019,0.169,0.025l0,0l0,0C104.073,90.125,104.016,90.116,103.952,90.106 M102.036,89.889
				c-1.027,0.001-1.983,0.3-1.834,1.538C100.053,90.188,101.009,89.89,102.036,89.889 M102.04,89.889L102.04,89.889
				c0.003,0,0.007,0,0.01,0C102.047,89.889,102.043,89.889,102.04,89.889 M146.741,81.827c-2.736,0.052-5.565,0.074-8.436,0.144l0,0
				C141.174,81.901,144.006,81.879,146.741,81.827 M146.787,81.826c-0.002,0-0.004,0-0.007,0
				C146.783,81.826,146.784,81.826,146.787,81.826 M146.868,81.825c-0.006,0-0.013,0-0.02,0
				C146.854,81.825,146.861,81.825,146.868,81.825 M147.017,81.822c-0.008,0-0.016,0-0.023,0
				C147.001,81.822,147.009,81.822,147.017,81.822 M158.226,81.148L158.226,81.148L158.226,81.148 M158.298,81.139
				c-0.004,0.001-0.009,0.001-0.013,0.002C158.289,81.14,158.293,81.14,158.298,81.139 M136.121,81.132L136.121,81.132
				c0,0,0.001,0,0.002,0C136.122,81.132,136.121,81.132,136.121,81.132L136.121,81.132 M158.358,81.131
				c-0.003,0-0.007,0.001-0.01,0.001C158.352,81.132,158.354,81.131,158.358,81.131 M158.421,81.122
				c-0.002,0.001-0.005,0.001-0.007,0.001C158.416,81.123,158.419,81.122,158.421,81.122 M158.551,81.104
				c-0.001,0-0.003,0.001-0.004,0.001C158.548,81.105,158.55,81.104,158.551,81.104 M158.615,81.096c-0.002,0-0.004,0-0.006,0.001
				C158.612,81.096,158.612,81.096,158.615,81.096 M158.681,81.086c-0.003,0.001-0.008,0.002-0.012,0.002
				C158.673,81.088,158.677,81.087,158.681,81.086 M158.743,81.077c-0.003,0.001-0.008,0.001-0.011,0.002
				C158.736,81.078,158.739,81.078,158.743,81.077 M158.804,81.068c-0.001,0.001-0.002,0.001-0.003,0.001
				C158.801,81.069,158.803,81.069,158.804,81.068 M158.871,81.059c-0.001,0.001-0.003,0.001-0.005,0.001
				C158.868,81.06,158.87,81.06,158.871,81.059 M158.944,81.049c-0.006,0.001-0.013,0.002-0.019,0.002
				C158.931,81.051,158.938,81.049,158.944,81.049 M159.004,81.04c-0.006,0.001-0.012,0.001-0.019,0.003
				C158.99,81.042,158.999,81.04,159.004,81.04 M159.066,81.03c-0.007,0.001-0.013,0.002-0.021,0.003
				C159.052,81.032,159.06,81.031,159.066,81.03 M159.125,81.021c-0.005,0.001-0.01,0.002-0.016,0.003
				C159.114,81.023,159.119,81.022,159.125,81.021 M159.197,81.011c-0.006,0.001-0.012,0.002-0.018,0.003
				C159.184,81.013,159.191,81.012,159.197,81.011 M159.268,81c-0.009,0.001-0.017,0.002-0.026,0.004
				C159.25,81.003,159.26,81.001,159.268,81 M159.329,80.99c-0.01,0.002-0.021,0.004-0.031,0.005
				C159.309,80.993,159.318,80.992,159.329,80.99 M159.387,80.981c-0.01,0.001-0.02,0.003-0.029,0.005
				C159.367,80.984,159.377,80.982,159.387,80.981 M159.444,80.973c-0.008,0.001-0.018,0.003-0.026,0.004
				C159.427,80.975,159.435,80.974,159.444,80.973 M159.553,80.955c-0.025,0.004-0.051,0.008-0.076,0.012
				C159.503,80.963,159.527,80.959,159.553,80.955 M159.59,80.949c-0.011,0.002-0.023,0.004-0.035,0.005
				C159.567,80.953,159.579,80.951,159.59,80.949 M159.646,80.939c-0.011,0.002-0.021,0.004-0.033,0.006
				C159.625,80.943,159.635,80.941,159.646,80.939 M159.705,80.93c-0.012,0.002-0.022,0.004-0.035,0.006
				C159.682,80.934,159.693,80.932,159.705,80.93 M159.761,80.921c-0.011,0.002-0.022,0.004-0.033,0.006
				C159.74,80.925,159.75,80.923,159.761,80.921 M159.914,80.896c-0.044,0.007-0.087,0.015-0.131,0.021
				C159.827,80.91,159.87,80.902,159.914,80.896 M159.964,80.887c-0.013,0.002-0.026,0.005-0.039,0.007
				C159.939,80.891,159.951,80.889,159.964,80.887 M160.022,80.877c-0.013,0.002-0.026,0.004-0.039,0.007
				C159.996,80.881,160.009,80.879,160.022,80.877 M160.078,80.867c-0.014,0.002-0.028,0.005-0.042,0.007
				C160.049,80.872,160.064,80.869,160.078,80.867 M160.287,80.83c-0.065,0.012-0.13,0.023-0.196,0.035
				C160.155,80.854,160.223,80.842,160.287,80.83 M160.337,80.821c-0.015,0.003-0.031,0.006-0.046,0.008
				C160.307,80.827,160.322,80.824,160.337,80.821 M160.39,80.812c-0.015,0.003-0.029,0.006-0.044,0.008
				C160.36,80.817,160.376,80.814,160.39,80.812 M160.6,80.772c-0.066,0.013-0.133,0.025-0.2,0.037
				C160.467,80.798,160.534,80.785,160.6,80.772 M160.646,80.764c-0.015,0.003-0.03,0.006-0.045,0.009
				C160.616,80.77,160.63,80.768,160.646,80.764 M160.698,80.754c-0.014,0.003-0.028,0.006-0.042,0.009
				C160.67,80.76,160.684,80.757,160.698,80.754 M160.754,80.743c-0.014,0.003-0.029,0.006-0.043,0.009
				C160.726,80.749,160.739,80.746,160.754,80.743 M160.959,80.703c-0.066,0.014-0.135,0.027-0.201,0.04
				C160.825,80.729,160.892,80.717,160.959,80.703 M161.009,80.693c-0.017,0.004-0.032,0.007-0.048,0.01
				C160.977,80.7,160.993,80.697,161.009,80.693 M161.061,80.684c-0.016,0.003-0.032,0.006-0.048,0.01
				C161.029,80.689,161.045,80.687,161.061,80.684 M161.315,80.631c-0.083,0.018-0.167,0.035-0.251,0.052
				C161.148,80.666,161.231,80.648,161.315,80.631 M161.365,80.621c-0.017,0.003-0.033,0.006-0.049,0.01
				C161.333,80.627,161.349,80.624,161.365,80.621 M161.616,80.566c-0.083,0.019-0.166,0.036-0.249,0.054
				C161.451,80.603,161.533,80.585,161.616,80.566 M161.667,80.556c-0.016,0.004-0.032,0.007-0.048,0.011
				C161.635,80.562,161.651,80.559,161.667,80.556 M164.398,79.814c-0.868,0.287-1.779,0.531-2.729,0.74
				C162.619,80.346,163.531,80.102,164.398,79.814 M164.444,79.8c-0.014,0.005-0.029,0.01-0.043,0.015
				C164.416,79.81,164.43,79.805,164.444,79.8 M164.715,79.707c-0.089,0.031-0.178,0.062-0.268,0.092
				C164.537,79.769,164.626,79.738,164.715,79.707 M164.762,79.691c-0.014,0.005-0.028,0.01-0.042,0.015
				C164.733,79.701,164.748,79.696,164.762,79.691 M164.984,79.612c-0.072,0.026-0.146,0.052-0.219,0.078
				C164.839,79.664,164.912,79.639,164.984,79.612 M165.03,79.596c-0.014,0.005-0.027,0.01-0.041,0.016
				C165.002,79.606,165.017,79.601,165.03,79.596 M165.25,79.515c-0.071,0.026-0.144,0.054-0.216,0.079
				C165.106,79.568,165.179,79.541,165.25,79.515 M165.293,79.498c-0.013,0.005-0.025,0.01-0.038,0.015
				C165.267,79.508,165.281,79.503,165.293,79.498 M165.339,79.48c-0.013,0.005-0.024,0.01-0.037,0.015
				C165.315,79.49,165.327,79.485,165.339,79.48 M165.513,79.413c-0.056,0.022-0.111,0.044-0.167,0.064
				C165.401,79.457,165.458,79.435,165.513,79.413 M165.554,79.397c-0.012,0.005-0.024,0.009-0.036,0.014
				C165.53,79.407,165.542,79.402,165.554,79.397 M165.6,79.379c-0.011,0.005-0.023,0.01-0.034,0.014
				C165.577,79.389,165.588,79.384,165.6,79.379 M165.646,79.361c-0.012,0.004-0.023,0.009-0.035,0.014
				C165.622,79.371,165.635,79.365,165.646,79.361 M165.769,79.311c-0.038,0.016-0.077,0.031-0.115,0.047
				C165.692,79.342,165.731,79.326,165.769,79.311 M165.81,79.295c-0.01,0.004-0.021,0.008-0.031,0.012
				C165.79,79.303,165.799,79.299,165.81,79.295 M165.855,79.275c-0.01,0.004-0.02,0.009-0.03,0.013
				C165.835,79.284,165.846,79.279,165.855,79.275 M165.901,79.257c-0.01,0.004-0.019,0.008-0.029,0.012
				C165.882,79.265,165.892,79.261,165.901,79.257 M165.948,79.237c-0.01,0.004-0.02,0.008-0.03,0.013
				C165.928,79.246,165.938,79.241,165.948,79.237 M166.024,79.205c-0.022,0.009-0.043,0.018-0.064,0.027
				C165.981,79.224,166.003,79.214,166.024,79.205 M166.064,79.188c-0.01,0.004-0.02,0.009-0.029,0.013
				C166.044,79.196,166.055,79.191,166.064,79.188 M166.11,79.168c-0.009,0.004-0.019,0.009-0.028,0.013
				C166.091,79.177,166.101,79.172,166.11,79.168 M166.156,79.148c-0.01,0.004-0.019,0.008-0.028,0.013
				C166.137,79.156,166.146,79.152,166.156,79.148 M166.201,79.129c-0.009,0.004-0.019,0.008-0.028,0.012
				C166.183,79.137,166.192,79.133,166.201,79.129 M166.317,79.078c-0.033,0.015-0.066,0.029-0.1,0.044
				C166.25,79.107,166.284,79.093,166.317,79.078 M166.361,79.058c-0.009,0.004-0.019,0.009-0.027,0.013
				C166.343,79.066,166.352,79.062,166.361,79.058 M166.407,79.037c-0.009,0.005-0.018,0.009-0.028,0.013
				C166.388,79.046,166.397,79.041,166.407,79.037 M166.452,79.017c-0.009,0.005-0.019,0.009-0.028,0.013
				C166.433,79.025,166.443,79.021,166.452,79.017 M166.497,78.996c-0.01,0.005-0.019,0.009-0.029,0.014
				C166.479,79.005,166.487,79.001,166.497,78.996 M166.563,78.966c-0.02,0.009-0.038,0.018-0.058,0.026
				C166.524,78.984,166.545,78.975,166.563,78.966 M166.607,78.945c-0.008,0.004-0.016,0.008-0.023,0.011
				C166.592,78.953,166.599,78.949,166.607,78.945 M166.652,78.925c-0.007,0.003-0.015,0.007-0.023,0.011
				C166.636,78.932,166.645,78.928,166.652,78.925 M166.698,78.903c-0.008,0.003-0.015,0.007-0.023,0.011
				C166.682,78.91,166.69,78.906,166.698,78.903 M166.743,78.882c-0.008,0.003-0.015,0.007-0.023,0.011
				C166.728,78.889,166.734,78.886,166.743,78.882 M166.803,78.853c-0.012,0.006-0.024,0.012-0.036,0.018
				C166.778,78.864,166.791,78.858,166.803,78.853 M166.851,78.83c-0.007,0.003-0.014,0.006-0.021,0.01
				C166.836,78.837,166.845,78.833,166.851,78.83 M166.896,78.808c-0.007,0.003-0.015,0.007-0.021,0.011
				C166.882,78.814,166.889,78.811,166.896,78.808 M166.928,78.792c-0.002,0.001-0.006,0.003-0.008,0.004
				C166.922,78.795,166.925,78.793,166.928,78.792L166.928,78.792"/>
			
				<linearGradient id="SVGID_20_" gradientUnits="userSpaceOnUse" x1="795" y1="-956.9746" x2="796" y2="-956.9746" gradientTransform="matrix(182.0825 0 0 -182.0825 -144659.3594 -174151.0938)">
				<stop  offset="0" style="stop-color:#8D878B"/>
				<stop  offset="0.0708" style="stop-color:#888286"/>
				<stop  offset="1" style="stop-color:#464345"/>
			</linearGradient>
			<path clip-path="url(#SVGID_1_)" fill="url(#SVGID_20_)" d="M260.116,96.796c-0.83,0-1.705,0.193-2.082,0.243l0,0
				c0,0-1.599,0.066-2.105,0.731c0.133,0.06,0.266,0.119,0.399,0.181c0.478-0.695,2.136-0.761,2.136-0.761
				c0.376-0.05,1.252-0.243,2.082-0.243c0.281,0,0.556,0.022,0.805,0.079C261.013,96.854,260.571,96.796,260.116,96.796"/>
			
				<linearGradient id="SVGID_21_" gradientUnits="userSpaceOnUse" x1="795.0005" y1="-957.0176" x2="796.0005" y2="-957.0176" gradientTransform="matrix(182.0825 0 0 -182.0825 -144659.3594 -174151.0938)">
				<stop  offset="0" style="stop-color:#E6D8DD"/>
				<stop  offset="0.5002" style="stop-color:#AAA0A4"/>
				<stop  offset="1" style="stop-color:#736C6E"/>
			</linearGradient>
			<path clip-path="url(#SVGID_1_)" fill="url(#SVGID_21_)" d="M202.098,78.823c0.004,0.004,0.008,0.008,0.012,0.012
				C202.106,78.831,202.101,78.827,202.098,78.823 M215.972,126.926c-0.078,0-1.215-0.052-2.01-3.058
				c-0.383-1.446,0.14-1.834,0.809-1.834c0.772,0,1.74,0.515,1.74,0.515c0.788,0.33,4.131,1.303,2.711,3.121
				c-0.876,1.123-1.909,1.338-2.57,1.338c-0.409,0-0.676-0.082-0.676-0.082S215.974,126.926,215.972,126.926 M243.797,125.326
				c-0.486,0-1.418-0.264-2.87-1.712c-2.281-2.274,1.537-2.424,1.537-2.424c0.376-0.05,1.252-0.243,2.082-0.243
				c1.038,0,2.004,0.304,1.832,1.574c-0.311,2.284-2.172,2.719-2.172,2.719S244.074,125.326,243.797,125.326 M190.474,123.288
				c-0.157,0-0.332-0.027-0.526-0.087c-2.205-0.675-2.333-2.582-2.333-2.582s-0.478-1.091,2.136-2.974
				c0.52-0.375,0.917-0.524,1.221-0.524c1.223,0,0.921,2.435,0.921,2.435C191.871,120.335,192.105,123.288,190.474,123.288
				 M153.505,120.101c-0.661,0-1.694-0.215-2.571-1.338c-1.42-1.817,1.923-2.791,2.711-3.121c0,0,0.968-0.515,1.74-0.515
				c0.67,0,1.192,0.387,0.809,1.834c-0.795,3.006-1.932,3.058-2.01,3.058c-0.002,0-0.004,0-0.004,0S153.913,120.101,153.505,120.101
				 M255.797,113.326c-0.486,0-1.418-0.264-2.87-1.712c-2.281-2.274,1.537-2.424,1.537-2.424c0.376-0.05,1.252-0.243,2.082-0.243
				c1.039,0,2.005,0.304,1.833,1.574c-0.311,2.284-2.172,2.719-2.172,2.719S256.074,113.326,255.797,113.326 M235.886,113.177
				c-0.252,0-1.278-0.17-2.369-2.744c-0.671-1.581,0.037-1.95,0.845-1.95c0.707,0,1.49,0.282,1.49,0.282
				c0.827,0.215,4.274,0.704,3.127,2.705c-0.885,1.542-2.209,1.719-2.769,1.719c-0.167,0-0.265-0.016-0.265-0.016
				S235.924,113.177,235.886,113.177 M211.71,112.025c-0.252,0-1.277-0.17-2.368-2.744c-0.671-1.581,0.037-1.95,0.844-1.95
				c0.707,0,1.491,0.283,1.491,0.283c0.827,0.214,4.274,0.703,3.126,2.704c-0.884,1.542-2.209,1.719-2.769,1.719
				c-0.166,0-0.265-0.016-0.265-0.016S211.748,112.025,211.71,112.025 M178.53,111.876c-0.222,0-0.469-0.068-0.747-0.223
				c-2.015-1.122-1.74-3.015-1.74-3.015s-0.238-1.166,2.712-2.459c0.448-0.197,0.799-0.28,1.073-0.28
				c1.524,0,0.623,2.596,0.623,2.596C180.273,109.211,179.917,111.876,178.53,111.876 M133.945,106.281
				c-0.56,0-1.885-0.177-2.769-1.719c-1.147-2.001,2.299-2.49,3.127-2.705c0,0,0.783-0.282,1.49-0.282
				c0.808,0,1.517,0.368,0.845,1.95c-1.091,2.574-2.117,2.744-2.369,2.744c-0.038,0-0.059-0.004-0.059-0.004
				S134.112,106.281,133.945,106.281 M158.123,105.131c-0.56,0-1.886-0.176-2.771-1.72c-1.148-2.001,2.299-2.489,3.126-2.704
				c0,0,0.783-0.283,1.49-0.283c0.808,0,1.516,0.369,0.845,1.95c-1.092,2.575-2.117,2.745-2.368,2.745
				c-0.038,0-0.059-0.004-0.059-0.004S158.289,105.131,158.123,105.131 M110.922,103.979c-0.56,0-1.885-0.177-2.769-1.719
				c-1.148-2.002,2.299-2.49,3.126-2.705c0,0,0.784-0.283,1.491-0.283c0.808,0,1.516,0.369,0.844,1.95
				c-1.091,2.576-2.117,2.745-2.369,2.745c-0.038,0-0.058-0.004-0.058-0.004S111.089,103.979,110.922,103.979 M245.797,103.326
				c-0.486,0-1.418-0.264-2.87-1.712c-2.281-2.274,1.537-2.424,1.537-2.424c0.376-0.05,1.252-0.243,2.082-0.243
				c1.039,0,2.005,0.304,1.833,1.574c-0.311,2.284-2.172,2.719-2.172,2.719S246.074,103.326,245.797,103.326 M191.796,102.75
				c-0.079,0-1.215-0.053-2.009-3.058c-0.383-1.446,0.139-1.833,0.809-1.833c0.771,0,1.739,0.515,1.739,0.515
				c0.789,0.329,4.131,1.303,2.711,3.121c-0.876,1.122-1.908,1.337-2.569,1.337c-0.409,0-0.676-0.082-0.676-0.082
				S191.799,102.75,191.796,102.75 M222.797,99.326c-0.486,0-1.418-0.264-2.87-1.712c-2.281-2.274,1.537-2.424,1.537-2.424
				c0.376-0.05,1.252-0.243,2.082-0.243c1.039,0,2.005,0.304,1.833,1.574c-0.311,2.284-2.172,2.719-2.172,2.719
				S223.074,99.326,222.797,99.326 M206.019,95.917c-0.278,0-1.289-0.187-2.431-2.675c-0.741-1.614,0.029-1.977,0.871-1.977
				c0.685,0,1.416,0.24,1.416,0.24c0.834,0.192,4.293,0.58,3.203,2.614c-0.879,1.643-2.285,1.8-2.793,1.8
				c-0.121,0-0.19-0.009-0.19-0.009S206.068,95.917,206.019,95.917 M177.68,95.926c-0.661,0-1.693-0.215-2.57-1.338
				c-1.42-1.818,1.922-2.792,2.71-3.121c0,0,0.968-0.516,1.74-0.516c0.669,0,1.192,0.388,0.809,1.834
				c-0.795,3.006-1.932,3.059-2.009,3.059c-0.003,0-0.004,0-0.004,0S178.088,95.926,177.68,95.926 M147.357,92.42
				c-0.277,0-0.409-0.086-0.409-0.086s-1.86-0.436-2.171-2.72c-0.173-1.271,0.793-1.574,1.832-1.574c0.83,0,1.706,0.194,2.082,0.243
				c0,0,3.818,0.149,1.536,2.424C148.776,92.156,147.843,92.42,147.357,92.42 M127.787,91.268c-0.277,0-0.409-0.085-0.409-0.085
				s-1.86-0.436-2.171-2.72c-0.173-1.271,0.794-1.574,1.833-1.574c0.83,0,1.705,0.193,2.081,0.243c0,0,3.818,0.149,1.536,2.424
				C129.206,91.005,128.272,91.268,127.787,91.268 M163.871,89.013c-0.507,0-1.914-0.157-2.793-1.8
				c-1.09-2.034,2.369-2.422,3.202-2.614c0,0,0.731-0.24,1.416-0.24c0.842,0,1.613,0.362,0.872,1.977
				c-1.143,2.488-2.153,2.675-2.431,2.675c-0.049,0-0.075-0.006-0.075-0.006S163.992,89.013,163.871,89.013 M166.928,78.792
				c-0.003,0.001-0.005,0.003-0.008,0.004c-0.008,0.004-0.016,0.008-0.023,0.012c-0.007,0.003-0.014,0.007-0.021,0.011
				c-0.008,0.004-0.016,0.008-0.024,0.012c-0.006,0.003-0.015,0.007-0.021,0.01c-0.009,0.004-0.018,0.009-0.027,0.013
				c-0.012,0.006-0.024,0.012-0.036,0.018c-0.008,0.004-0.016,0.008-0.024,0.012c-0.008,0.004-0.015,0.007-0.023,0.011
				c-0.007,0.003-0.015,0.007-0.022,0.011c-0.007,0.003-0.016,0.007-0.023,0.011c-0.007,0.003-0.015,0.007-0.023,0.011
				c-0.007,0.003-0.016,0.007-0.023,0.011c-0.007,0.003-0.014,0.006-0.022,0.01c-0.008,0.004-0.015,0.008-0.023,0.011
				c-0.006,0.003-0.013,0.007-0.02,0.01c-0.018,0.009-0.039,0.019-0.058,0.026c-0.003,0.001-0.006,0.003-0.009,0.004
				c-0.01,0.005-0.019,0.009-0.029,0.014c-0.005,0.002-0.011,0.005-0.016,0.007c-0.009,0.005-0.019,0.009-0.028,0.013
				c-0.005,0.003-0.011,0.006-0.017,0.008c-0.009,0.004-0.019,0.009-0.028,0.013c-0.006,0.003-0.012,0.005-0.018,0.008
				c-0.009,0.004-0.018,0.009-0.027,0.013c-0.006,0.002-0.011,0.005-0.017,0.008c-0.033,0.015-0.066,0.029-0.1,0.044
				c-0.005,0.002-0.01,0.004-0.016,0.007c-0.009,0.004-0.019,0.008-0.028,0.012c-0.006,0.003-0.012,0.006-0.017,0.008
				c-0.009,0.004-0.019,0.008-0.028,0.013c-0.006,0.002-0.012,0.005-0.018,0.007c-0.009,0.004-0.019,0.009-0.028,0.013
				c-0.005,0.002-0.011,0.005-0.017,0.007c-0.009,0.004-0.02,0.009-0.029,0.013c-0.003,0.002-0.007,0.003-0.011,0.005
				c-0.021,0.009-0.043,0.019-0.064,0.027c-0.004,0.001-0.008,0.003-0.012,0.005c-0.009,0.004-0.02,0.009-0.03,0.013
				c-0.005,0.002-0.011,0.004-0.017,0.007c-0.009,0.004-0.02,0.008-0.029,0.012c-0.006,0.003-0.011,0.005-0.017,0.007
				c-0.009,0.004-0.02,0.009-0.03,0.013c-0.005,0.002-0.01,0.004-0.016,0.007c-0.011,0.004-0.021,0.008-0.031,0.012
				c-0.003,0.002-0.006,0.003-0.01,0.004c-0.038,0.016-0.077,0.031-0.115,0.047c-0.002,0.001-0.005,0.002-0.008,0.004
				c-0.011,0.004-0.024,0.01-0.035,0.014c-0.004,0.001-0.008,0.003-0.011,0.004c-0.012,0.005-0.022,0.01-0.034,0.014
				c-0.004,0.002-0.007,0.003-0.011,0.005c-0.012,0.005-0.024,0.01-0.036,0.014c-0.002,0.001-0.003,0.002-0.005,0.002
				c-0.055,0.021-0.112,0.044-0.167,0.064c-0.001,0.001-0.005,0.002-0.007,0.003c-0.013,0.005-0.024,0.01-0.037,0.015
				c-0.002,0.001-0.006,0.002-0.009,0.003c-0.012,0.005-0.026,0.01-0.038,0.015c-0.002,0.001-0.004,0.001-0.005,0.002
				c-0.071,0.026-0.144,0.054-0.216,0.079c-0.001,0.001-0.003,0.002-0.004,0.002c-0.013,0.005-0.028,0.011-0.041,0.016
				c-0.001,0-0.003,0-0.004,0.001c-0.072,0.026-0.146,0.052-0.219,0.078c-0.001,0-0.002,0.001-0.004,0.001
				c-0.014,0.005-0.028,0.01-0.042,0.015c-0.002,0.001-0.003,0.001-0.005,0.001c-0.089,0.031-0.178,0.062-0.268,0.092
				c-0.001,0-0.002,0-0.003,0.001c-0.015,0.005-0.029,0.01-0.043,0.015c-0.001,0-0.001,0-0.002,0
				c-0.868,0.287-1.779,0.531-2.729,0.74c-0.001,0.001-0.001,0.001-0.002,0.001c-0.016,0.003-0.032,0.007-0.048,0.011
				c0,0-0.001,0-0.002,0c-0.083,0.019-0.165,0.036-0.249,0.054c-0.001,0-0.001,0-0.002,0.001c-0.016,0.003-0.033,0.006-0.049,0.01
				h-0.001c-0.083,0.018-0.167,0.035-0.251,0.052c-0.001,0-0.002,0-0.003,0.001c-0.016,0.003-0.032,0.006-0.048,0.01
				c-0.001,0-0.003,0-0.004,0c-0.016,0.004-0.032,0.007-0.048,0.01c0,0-0.001,0-0.001,0c-0.067,0.014-0.134,0.026-0.201,0.04
				c-0.002,0-0.002,0-0.004,0c-0.015,0.003-0.028,0.006-0.043,0.009c-0.004,0.001-0.008,0.002-0.013,0.002
				c-0.014,0.003-0.028,0.006-0.042,0.009c-0.003,0-0.007,0.001-0.01,0.001c-0.016,0.004-0.03,0.006-0.045,0.009h0
				c-0.066,0.013-0.133,0.025-0.2,0.037c-0.003,0.001-0.007,0.001-0.01,0.002c-0.014,0.003-0.03,0.006-0.044,0.008
				c-0.003,0.001-0.005,0.001-0.008,0.002c-0.015,0.003-0.031,0.006-0.046,0.008c-0.001,0.001-0.003,0.001-0.004,0.001
				c-0.064,0.012-0.131,0.023-0.196,0.035c-0.005,0-0.008,0.001-0.013,0.002c-0.013,0.002-0.029,0.005-0.042,0.007
				c-0.004,0.001-0.01,0.002-0.014,0.003c-0.013,0.002-0.026,0.004-0.039,0.007c-0.007,0.001-0.013,0.002-0.019,0.003
				c-0.013,0.002-0.025,0.004-0.039,0.007c-0.004,0-0.008,0.001-0.012,0.002c-0.044,0.007-0.087,0.015-0.131,0.021
				c-0.007,0.002-0.014,0.003-0.021,0.004c-0.012,0.002-0.021,0.004-0.033,0.006c-0.007,0.001-0.016,0.002-0.023,0.003
				c-0.012,0.002-0.023,0.004-0.035,0.006c-0.008,0.002-0.016,0.003-0.024,0.004c-0.012,0.002-0.021,0.004-0.033,0.006
				c-0.007,0.001-0.016,0.002-0.023,0.004c-0.012,0.002-0.023,0.004-0.035,0.005c0,0.001-0.002,0.001-0.002,0.001
				c-0.026,0.004-0.05,0.008-0.076,0.012c-0.012,0.002-0.021,0.004-0.033,0.006c-0.009,0.001-0.017,0.002-0.026,0.004
				c-0.011,0.002-0.021,0.003-0.031,0.005c-0.009,0.001-0.02,0.003-0.029,0.005c-0.009,0.001-0.019,0.003-0.028,0.004
				c-0.011,0.002-0.021,0.003-0.031,0.005c-0.01,0.002-0.02,0.003-0.03,0.005c-0.008,0.001-0.018,0.003-0.026,0.004
				c-0.015,0.002-0.03,0.005-0.045,0.007c-0.005,0.001-0.013,0.002-0.018,0.003c-0.018,0.002-0.037,0.006-0.054,0.008
				c-0.005,0.001-0.01,0.002-0.016,0.003c-0.014,0.002-0.029,0.004-0.043,0.006c-0.006,0.001-0.014,0.002-0.021,0.003
				c-0.013,0.002-0.028,0.005-0.042,0.007c-0.005,0-0.014,0.002-0.019,0.003c-0.013,0.002-0.028,0.004-0.041,0.006
				c-0.005,0-0.013,0.002-0.019,0.002c-0.019,0.003-0.036,0.006-0.054,0.008c-0.001,0.001-0.003,0.001-0.005,0.001
				c-0.021,0.003-0.042,0.007-0.062,0.009c-0.001,0.001-0.002,0.001-0.003,0.001c-0.019,0.003-0.038,0.006-0.057,0.008
				c-0.004,0.001-0.007,0.001-0.011,0.002c-0.018,0.003-0.034,0.005-0.051,0.007c-0.004,0.001-0.008,0.002-0.012,0.002
				c-0.019,0.003-0.036,0.005-0.054,0.008c-0.003,0-0.003,0-0.006,0.001c-0.02,0.003-0.039,0.005-0.059,0.008
				c-0.001,0-0.003,0.001-0.004,0.001c-0.042,0.006-0.083,0.011-0.125,0.017c-0.001,0-0.005,0.001-0.007,0.001
				c-0.019,0.003-0.037,0.005-0.056,0.008c-0.004,0-0.006,0.001-0.01,0.001c-0.017,0.003-0.034,0.005-0.05,0.007
				c-0.004,0.001-0.009,0.001-0.013,0.002c-0.02,0.003-0.039,0.005-0.059,0.008h0c-3.422,0.45-7.213,0.596-11.209,0.674
				c-0.008,0-0.016,0-0.023,0c-0.042,0.001-0.083,0.002-0.125,0.003c-0.006,0-0.013,0-0.02,0c-0.021,0.001-0.041,0.001-0.062,0.001
				c-0.003,0-0.004,0-0.007,0c-0.013,0.001-0.026,0.001-0.039,0.001c-2.735,0.052-5.567,0.074-8.436,0.144
				c0.187,0.357,0.076,0.864-0.647,1.585c-1.452,1.449-2.384,1.712-2.87,1.712c-0.277,0-0.409-0.085-0.409-0.085
				s-1.86-0.436-2.171-2.72c-0.012-0.088-0.019-0.17-0.02-0.248c-9.75,0.581-19.537,2.294-27.361,8
				c0.98,0.176,2.46,0.717,0.831,2.341c-1.452,1.449-2.385,1.713-2.871,1.713c-0.277,0-0.409-0.086-0.409-0.086
				s-0.674-0.157-1.278-0.781c-1.688,1.686-3.248,3.616-4.65,5.842c-0.004,0.007-0.008,0.013-0.012,0.02
				c-0.008,0.013-0.017,0.026-0.025,0.04c-0.013,0.021-0.025,0.039-0.038,0.061c-0.004,0.007-0.008,0.013-0.012,0.02
				c-0.011,0.018-0.021,0.035-0.033,0.053c-0.004,0.007-0.008,0.013-0.012,0.02c-0.014,0.022-0.029,0.047-0.043,0.069
				c0,0,0.816,28.957,110.947,32.027c1.157,0.032,2.298,0.061,3.42,0.085c1.592,0.035,3.163,0.062,4.688,0.083
				c2.128,0.028,4.196,0.042,6.196,0.042c61.488,0,62.96-13.013,50.857-23.798c0.001-0.001,0.002-0.002,0.003-0.003
				c-1.405-1.252-2.993-2.473-4.691-3.641c-0.001,0-0.002,0.001-0.003,0.001c-1.973-1.357-4.094-2.643-6.252-3.816
				c-0.592,0.586-1.233,0.735-1.233,0.735s-0.132,0.086-0.409,0.086c-0.486,0-1.418-0.264-2.87-1.712
				c-0.778-0.775-0.847-1.304-0.599-1.663c-0.133-0.062-0.266-0.121-0.399-0.181l0,0c-1.216-0.546-2.411-1.047-3.565-1.495h-0.001
				c-0.021-0.009-0.042-0.018-0.064-0.025c-0.701-0.271-1.383-0.521-2.048-0.751c-0.017-0.006-0.034-0.012-0.05-0.018l0,0
				c-12.701-4.38-23.402-6.26-32.104-8.778c-4.855,0.511-9.738,0.801-14.656,0.801c-1.481,0-2.966-0.026-4.454-0.081
				c-7.197-0.263-14.337-1.455-21.227-3.538C175.798,83.292,168.308,81.242,166.928,78.792 M202.04,78.771
				c0.007,0.007,0.015,0.014,0.022,0.021C202.055,78.785,202.048,78.779,202.04,78.771 M201.984,78.721
				c0.009,0.008,0.017,0.016,0.026,0.023C202.001,78.736,201.993,78.729,201.984,78.721 M201.925,78.667
				c0.011,0.01,0.021,0.02,0.032,0.028C201.946,78.687,201.935,78.677,201.925,78.667 M201.849,78.597
				c0.018,0.017,0.036,0.033,0.054,0.05C201.884,78.63,201.867,78.613,201.849,78.597"/>
			
				<linearGradient id="SVGID_22_" gradientUnits="userSpaceOnUse" x1="795" y1="-956.8779" x2="796" y2="-956.8779" gradientTransform="matrix(182.0825 0 0 -182.0825 -144659.3594 -174151.0938)">
				<stop  offset="0" style="stop-color:#8D878B"/>
				<stop  offset="0.0708" style="stop-color:#888286"/>
				<stop  offset="1" style="stop-color:#464345"/>
			</linearGradient>
			<path clip-path="url(#SVGID_1_)" fill="url(#SVGID_22_)" d="M187.231,71.974c-5.455,0-11.686,2.31-19.919,6.623l0,0
				c-0.127,0.066-0.255,0.132-0.385,0.195l0,0c1.38,2.45,8.87,4.5,10.831,5.093c6.89,2.083,14.029,3.275,21.227,3.538
				c1.488,0.055,2.972,0.081,4.454,0.081c4.917,0,9.8-0.29,14.656-0.801l0,0c-6.415-1.857-11.743-4.061-15.985-7.868l0,0
				c-0.004-0.004-0.008-0.008-0.012-0.012l0,0c-0.012-0.011-0.023-0.021-0.035-0.031l0,0c-0.007-0.007-0.015-0.014-0.022-0.021l0,0
				c-0.01-0.009-0.02-0.018-0.03-0.027l0,0c-0.009-0.008-0.017-0.016-0.026-0.023l0,0c-0.009-0.008-0.019-0.017-0.028-0.025l0,0
				c-0.011-0.009-0.021-0.019-0.032-0.028l0,0c-0.007-0.007-0.015-0.014-0.022-0.021l0,0c-0.018-0.017-0.036-0.033-0.054-0.05l0,0
				C196.969,74.092,192.455,71.974,187.231,71.974"/>
			
				<linearGradient id="SVGID_24_" gradientUnits="userSpaceOnUse" x1="795" y1="-956.916" x2="796" y2="-956.916" gradientTransform="matrix(182.0825 0 0 -182.0825 -144659.3594 -174151.0938)">
				<stop  offset="0" style="stop-color:#8D878B"/>
				<stop  offset="0.0708" style="stop-color:#888286"/>
				<stop  offset="1" style="stop-color:#464345"/>
			</linearGradient>
			<path clip-path="url(#SVGID_1_)" fill="url(#SVGID_24_)" d="M165.696,84.358c-0.685,0-1.416,0.24-1.416,0.24
				c-0.833,0.192-4.292,0.58-3.202,2.614c0.879,1.643,2.286,1.8,2.793,1.8c0.121,0,0.19-0.009,0.19-0.009s0.026,0.006,0.075,0.006
				c0.277,0,1.288-0.187,2.431-2.675C167.309,84.721,166.538,84.358,165.696,84.358"/>
			
				<linearGradient id="SVGID_25_" gradientUnits="userSpaceOnUse" x1="795" y1="-956.9355" x2="796" y2="-956.9355" gradientTransform="matrix(182.0825 0 0 -182.0825 -144659.3594 -174151.0938)">
				<stop  offset="0" style="stop-color:#8D878B"/>
				<stop  offset="0.0708" style="stop-color:#888286"/>
				<stop  offset="1" style="stop-color:#464345"/>
			</linearGradient>
			<path clip-path="url(#SVGID_1_)" fill="url(#SVGID_25_)" d="M146.609,88.04c-1.039,0-2.005,0.304-1.832,1.574
				c0.311,2.284,2.171,2.72,2.171,2.72s0.132,0.086,0.409,0.086c0.486,0,1.419-0.264,2.871-1.713
				c2.282-2.274-1.536-2.424-1.536-2.424C148.315,88.234,147.439,88.04,146.609,88.04"/>
			
				<linearGradient id="SVGID_26_" gradientUnits="userSpaceOnUse" x1="795" y1="-956.9297" x2="796" y2="-956.9297" gradientTransform="matrix(182.0825 0 0 -182.0825 -144659.3594 -174151.0938)">
				<stop  offset="0" style="stop-color:#8D878B"/>
				<stop  offset="0.0708" style="stop-color:#888286"/>
				<stop  offset="1" style="stop-color:#464345"/>
			</linearGradient>
			<path clip-path="url(#SVGID_1_)" fill="url(#SVGID_26_)" d="M127.04,86.889c-1.039,0-2.006,0.304-1.833,1.574
				c0.311,2.284,2.171,2.72,2.171,2.72s0.132,0.085,0.409,0.085c0.486,0,1.419-0.263,2.871-1.712
				c2.282-2.274-1.536-2.424-1.536-2.424C128.745,87.082,127.87,86.889,127.04,86.889"/>
			
				<linearGradient id="SVGID_27_" gradientUnits="userSpaceOnUse" x1="795" y1="-956.8965" x2="796" y2="-956.8965" gradientTransform="matrix(182.0825 0 0 -182.0825 -144659.3594 -174151.0938)">
				<stop  offset="0" style="stop-color:#8D878B"/>
				<stop  offset="0.0708" style="stop-color:#888286"/>
				<stop  offset="1" style="stop-color:#464345"/>
			</linearGradient>
			<path clip-path="url(#SVGID_1_)" fill="url(#SVGID_27_)" d="M134.055,80.893c-0.967,0-1.874,0.262-1.859,1.321
				c-0.003,0-0.006,0-0.009,0.001c0.001,0.078,0.008,0.16,0.02,0.248c0.311,2.284,2.171,2.72,2.171,2.72s0.132,0.085,0.409,0.085
				c0.486,0,1.418-0.263,2.87-1.712c0.723-0.721,0.834-1.228,0.647-1.585l0,0c-0.001,0-0.002,0-0.003,0
				c-0.395-0.752-2.11-0.836-2.179-0.839c-0.001,0-0.002,0-0.002,0l0,0C135.746,81.083,134.879,80.893,134.055,80.893"/>
			
				<linearGradient id="SVGID_28_" gradientUnits="userSpaceOnUse" x1="795" y1="-956.9458" x2="796" y2="-956.9458" gradientTransform="matrix(182.0825 0 0 -182.0825 -144659.3594 -174151.0938)">
				<stop  offset="0" style="stop-color:#8D878B"/>
				<stop  offset="0.0708" style="stop-color:#888286"/>
				<stop  offset="1" style="stop-color:#464345"/>
			</linearGradient>
			<path clip-path="url(#SVGID_1_)" fill="url(#SVGID_28_)" d="M102.04,89.889c-0.001,0-0.002,0-0.004,0
				c-1.027,0.001-1.983,0.3-1.834,1.538c0.001,0.012,0.003,0.024,0.005,0.036l0,0c0.001,0.008,0.002,0.016,0.003,0.023
				c0.001,0.004,0.001,0.007,0.002,0.011c0,0.004,0.001,0.009,0.002,0.013c0,0.005,0.001,0.009,0.001,0.014
				c0,0.003,0.001,0.006,0.001,0.008c0.133,0.875,0.497,1.463,0.888,1.865c-0.001,0.002-0.003,0.003-0.005,0.005
				c0.604,0.624,1.278,0.781,1.278,0.781s0.132,0.086,0.409,0.086c0.486,0,1.419-0.264,2.871-1.713
				c1.629-1.624,0.149-2.165-0.831-2.341c0,0-0.001,0.001-0.002,0.001c-0.391-0.069-0.703-0.084-0.703-0.084l0,0
				c-0.048-0.007-0.105-0.016-0.169-0.025c-0.43-0.07-1.182-0.216-1.902-0.218C102.047,89.889,102.043,89.889,102.04,89.889"/>
			
				<linearGradient id="SVGID_29_" gradientUnits="userSpaceOnUse" x1="795" y1="-956.998" x2="796" y2="-956.998" gradientTransform="matrix(182.0825 0 0 -182.0825 -144659.3594 -174151.0938)">
				<stop  offset="0" style="stop-color:#8D878B"/>
				<stop  offset="0.0708" style="stop-color:#888286"/>
				<stop  offset="1" style="stop-color:#464345"/>
			</linearGradient>
			<path clip-path="url(#SVGID_1_)" fill="url(#SVGID_29_)" d="M112.77,99.272c-0.707,0-1.491,0.283-1.491,0.283
				c-0.827,0.215-4.274,0.703-3.126,2.705c0.884,1.542,2.209,1.719,2.769,1.719c0.167,0,0.265-0.016,0.265-0.016
				s0.021,0.004,0.058,0.004c0.251,0,1.277-0.169,2.369-2.745C114.286,99.642,113.578,99.272,112.77,99.272"/>
			
				<linearGradient id="SVGID_30_" gradientUnits="userSpaceOnUse" x1="795" y1="-957.0107" x2="796" y2="-957.0107" gradientTransform="matrix(182.0825 0 0 -182.0825 -144659.3594 -174151.0938)">
				<stop  offset="0" style="stop-color:#8D878B"/>
				<stop  offset="0.0708" style="stop-color:#888286"/>
				<stop  offset="1" style="stop-color:#464345"/>
			</linearGradient>
			<path clip-path="url(#SVGID_1_)" fill="url(#SVGID_30_)" d="M135.793,101.575c-0.707,0-1.49,0.282-1.49,0.282
				c-0.828,0.215-4.274,0.704-3.127,2.705c0.884,1.542,2.208,1.719,2.769,1.719c0.167,0,0.266-0.016,0.266-0.016
				s0.021,0.004,0.059,0.004c0.252,0,1.278-0.17,2.369-2.744C137.31,101.943,136.602,101.575,135.793,101.575"/>
			
				<linearGradient id="SVGID_31_" gradientUnits="userSpaceOnUse" x1="795" y1="-957.0049" x2="796" y2="-957.0049" gradientTransform="matrix(182.0825 0 0 -182.0825 -144659.3594 -174151.0938)">
				<stop  offset="0" style="stop-color:#8D878B"/>
				<stop  offset="0.0708" style="stop-color:#888286"/>
				<stop  offset="1" style="stop-color:#464345"/>
			</linearGradient>
			<path clip-path="url(#SVGID_1_)" fill="url(#SVGID_31_)" d="M159.969,100.424c-0.707,0-1.49,0.283-1.49,0.283
				c-0.827,0.215-4.274,0.703-3.126,2.704c0.885,1.544,2.211,1.72,2.771,1.72c0.166,0,0.264-0.016,0.264-0.016
				s0.021,0.004,0.059,0.004c0.251,0,1.276-0.17,2.368-2.745C161.484,100.793,160.776,100.424,159.969,100.424"/>
			
				<linearGradient id="SVGID_32_" gradientUnits="userSpaceOnUse" x1="795" y1="-956.9531" x2="796" y2="-956.9531" gradientTransform="matrix(182.0825 0 0 -182.0825 -144659.3594 -174151.0938)">
				<stop  offset="0" style="stop-color:#8D878B"/>
				<stop  offset="0.0708" style="stop-color:#888286"/>
				<stop  offset="1" style="stop-color:#464345"/>
			</linearGradient>
			<path clip-path="url(#SVGID_1_)" fill="url(#SVGID_32_)" d="M179.56,90.951c-0.772,0-1.74,0.516-1.74,0.516
				c-0.788,0.329-4.13,1.303-2.71,3.121c0.877,1.123,1.91,1.338,2.57,1.338c0.408,0,0.675-0.082,0.675-0.082s0.001,0,0.004,0
				c0.078,0,1.214-0.053,2.009-3.059C180.751,91.339,180.229,90.951,179.56,90.951"/>
			
				<linearGradient id="SVGID_33_" gradientUnits="userSpaceOnUse" x1="795" y1="-957.0859" x2="796" y2="-957.0859" gradientTransform="matrix(182.0825 0 0 -182.0825 -144659.3594 -174151.0938)">
				<stop  offset="0" style="stop-color:#8D878B"/>
				<stop  offset="0.0708" style="stop-color:#888286"/>
				<stop  offset="1" style="stop-color:#464345"/>
			</linearGradient>
			<path clip-path="url(#SVGID_1_)" fill="url(#SVGID_33_)" d="M155.384,115.127c-0.772,0-1.74,0.515-1.74,0.515
				c-0.788,0.33-4.131,1.304-2.711,3.121c0.877,1.123,1.91,1.338,2.571,1.338c0.408,0,0.675-0.082,0.675-0.082s0.001,0,0.004,0
				c0.078,0,1.215-0.052,2.01-3.058C156.577,115.514,156.054,115.127,155.384,115.127"/>
			
				<linearGradient id="SVGID_34_" gradientUnits="userSpaceOnUse" x1="795" y1="-956.9541" x2="796" y2="-956.9541" gradientTransform="matrix(182.0825 0 0 -182.0825 -144659.3594 -174151.0938)">
				<stop  offset="0" style="stop-color:#8D878B"/>
				<stop  offset="0.0708" style="stop-color:#888286"/>
				<stop  offset="1" style="stop-color:#464345"/>
			</linearGradient>
			<path clip-path="url(#SVGID_1_)" fill="url(#SVGID_34_)" d="M204.458,91.266c-0.841,0-1.612,0.362-0.871,1.977
				c1.143,2.488,2.153,2.675,2.431,2.675c0.049,0,0.075-0.006,0.075-0.006s0.07,0.009,0.19,0.009c0.508,0,1.914-0.157,2.793-1.8
				c1.09-2.034-2.369-2.422-3.203-2.614C205.874,91.506,205.143,91.266,204.458,91.266"/>
			
				<linearGradient id="SVGID_35_" gradientUnits="userSpaceOnUse" x1="795" y1="-956.9736" x2="796" y2="-956.9736" gradientTransform="matrix(182.0825 0 0 -182.0825 -144659.3594 -174151.0938)">
				<stop  offset="0" style="stop-color:#8D878B"/>
				<stop  offset="0.0708" style="stop-color:#888286"/>
				<stop  offset="1" style="stop-color:#464345"/>
			</linearGradient>
			<path clip-path="url(#SVGID_1_)" fill="url(#SVGID_35_)" d="M223.545,94.947c-0.83,0-1.705,0.193-2.082,0.243
				c0,0-3.818,0.149-1.537,2.424c1.452,1.448,2.384,1.712,2.87,1.712c0.277,0,0.409-0.086,0.409-0.086s1.861-0.435,2.172-2.719
				C225.551,95.251,224.584,94.947,223.545,94.947"/>
			
				<linearGradient id="SVGID_36_" gradientUnits="userSpaceOnUse" x1="795" y1="-956.9956" x2="796" y2="-956.9956" gradientTransform="matrix(182.0825 0 0 -182.0825 -144659.3594 -174151.0938)">
				<stop  offset="0" style="stop-color:#8D878B"/>
				<stop  offset="0.0708" style="stop-color:#888286"/>
				<stop  offset="1" style="stop-color:#464345"/>
			</linearGradient>
			<path clip-path="url(#SVGID_1_)" fill="url(#SVGID_36_)" d="M246.545,98.947c-0.83,0-1.705,0.193-2.082,0.243
				c0,0-3.818,0.149-1.537,2.424c1.452,1.448,2.384,1.712,2.87,1.712c0.277,0,0.409-0.086,0.409-0.086s1.861-0.435,2.172-2.719
				C248.551,99.251,247.584,98.947,246.545,98.947"/>
			
				<linearGradient id="SVGID_37_" gradientUnits="userSpaceOnUse" x1="795" y1="-956.9844" x2="796" y2="-956.9844" gradientTransform="matrix(182.0825 0 0 -182.0825 -144659.3594 -174151.0938)">
				<stop  offset="0" style="stop-color:#8D878B"/>
				<stop  offset="0.0708" style="stop-color:#888286"/>
				<stop  offset="1" style="stop-color:#464345"/>
			</linearGradient>
			<path clip-path="url(#SVGID_1_)" fill="url(#SVGID_37_)" d="M260.545,96.947c-0.83,0-1.705,0.193-2.082,0.243
				c0,0-1.658,0.065-2.136,0.761c-0.248,0.359-0.179,0.888,0.599,1.663c1.452,1.448,2.384,1.712,2.87,1.712
				c0.277,0,0.409-0.086,0.409-0.086s0.641-0.149,1.233-0.735c-0.127-0.069-0.255-0.139-0.383-0.207
				c0.399-0.412,0.769-1.02,0.892-1.928c0.097-0.714-0.165-1.122-0.598-1.344l0,0C261.102,96.97,260.826,96.947,260.545,96.947"/>
			
				<linearGradient id="SVGID_38_" gradientUnits="userSpaceOnUse" x1="795" y1="-957.0508" x2="796" y2="-957.0508" gradientTransform="matrix(182.0825 0 0 -182.0825 -144659.3594 -174151.0938)">
				<stop  offset="0" style="stop-color:#8D878B"/>
				<stop  offset="0.0708" style="stop-color:#888286"/>
				<stop  offset="1" style="stop-color:#464345"/>
			</linearGradient>
			<path clip-path="url(#SVGID_1_)" fill="url(#SVGID_38_)" d="M256.545,108.947c-0.83,0-1.705,0.193-2.082,0.243
				c0,0-3.818,0.149-1.537,2.424c1.452,1.448,2.384,1.712,2.87,1.712c0.277,0,0.409-0.086,0.409-0.086s1.861-0.435,2.172-2.719
				C258.55,109.251,257.584,108.947,256.545,108.947"/>
			
				<linearGradient id="SVGID_39_" gradientUnits="userSpaceOnUse" x1="795" y1="-957.1162" x2="796" y2="-957.1162" gradientTransform="matrix(182.0825 0 0 -182.0825 -144659.3594 -174151.0938)">
				<stop  offset="0" style="stop-color:#8D878B"/>
				<stop  offset="0.0708" style="stop-color:#888286"/>
				<stop  offset="1" style="stop-color:#464345"/>
			</linearGradient>
			<path clip-path="url(#SVGID_1_)" fill="url(#SVGID_39_)" d="M244.546,120.947c-0.83,0-1.706,0.193-2.082,0.243
				c0,0-3.818,0.149-1.537,2.424c1.452,1.448,2.384,1.712,2.87,1.712c0.277,0,0.409-0.086,0.409-0.086s1.861-0.435,2.172-2.719
				C246.55,121.251,245.584,120.947,244.546,120.947"/>
			
				<linearGradient id="SVGID_40_" gradientUnits="userSpaceOnUse" x1="795" y1="-957.0488" x2="796" y2="-957.0488" gradientTransform="matrix(182.0825 0 0 -182.0825 -144659.3594 -174151.0938)">
				<stop  offset="0" style="stop-color:#8D878B"/>
				<stop  offset="0.0708" style="stop-color:#888286"/>
				<stop  offset="1" style="stop-color:#464345"/>
			</linearGradient>
			<path clip-path="url(#SVGID_1_)" fill="url(#SVGID_40_)" d="M234.362,108.482c-0.808,0-1.517,0.369-0.845,1.95
				c1.091,2.574,2.117,2.744,2.369,2.744c0.038,0,0.059-0.004,0.059-0.004s0.099,0.016,0.265,0.016c0.56,0,1.884-0.177,2.769-1.719
				c1.147-2.001-2.3-2.49-3.127-2.705C235.852,108.765,235.069,108.482,234.362,108.482"/>
			
				<linearGradient id="SVGID_41_" gradientUnits="userSpaceOnUse" x1="795" y1="-957.0425" x2="796" y2="-957.0425" gradientTransform="matrix(182.0825 0 0 -182.0825 -144659.3594 -174151.0938)">
				<stop  offset="0" style="stop-color:#8D878B"/>
				<stop  offset="0.0708" style="stop-color:#888286"/>
				<stop  offset="1" style="stop-color:#464345"/>
			</linearGradient>
			<path clip-path="url(#SVGID_1_)" fill="url(#SVGID_41_)" d="M210.186,107.331c-0.808,0-1.516,0.369-0.844,1.95
				c1.091,2.574,2.116,2.744,2.368,2.744c0.038,0,0.059-0.004,0.059-0.004s0.099,0.016,0.265,0.016c0.56,0,1.885-0.177,2.769-1.719
				c1.148-2.001-2.299-2.49-3.126-2.704C211.677,107.614,210.893,107.331,210.186,107.331"/>
			
				<linearGradient id="SVGID_42_" gradientUnits="userSpaceOnUse" x1="795" y1="-956.9912" x2="796" y2="-956.9912" gradientTransform="matrix(182.0825 0 0 -182.0825 -144659.3594 -174151.0938)">
				<stop  offset="0" style="stop-color:#8D878B"/>
				<stop  offset="0.0708" style="stop-color:#888286"/>
				<stop  offset="1" style="stop-color:#464345"/>
			</linearGradient>
			<path clip-path="url(#SVGID_1_)" fill="url(#SVGID_42_)" d="M190.596,97.859c-0.669,0-1.192,0.387-0.809,1.833
				c0.794,3.005,1.93,3.058,2.009,3.058c0.003,0,0.004,0,0.004,0s0.267,0.082,0.676,0.082c0.661,0,1.693-0.215,2.569-1.337
				c1.42-1.818-1.922-2.792-2.711-3.121C192.335,98.374,191.367,97.859,190.596,97.859"/>
			
				<linearGradient id="SVGID_43_" gradientUnits="userSpaceOnUse" x1="795" y1="-957.0381" x2="796" y2="-957.0381" gradientTransform="matrix(182.0825 0 0 -182.0825 -144659.3594 -174151.0938)">
				<stop  offset="0" style="stop-color:#8D878B"/>
				<stop  offset="0.0708" style="stop-color:#888286"/>
				<stop  offset="1" style="stop-color:#464345"/>
			</linearGradient>
			<path clip-path="url(#SVGID_1_)" fill="url(#SVGID_43_)" d="M179.828,105.899c-0.273,0-0.625,0.083-1.073,0.28
				c-2.95,1.293-2.712,2.459-2.712,2.459s-0.274,1.893,1.74,3.015c0.277,0.154,0.525,0.223,0.747,0.223
				c1.387,0,1.744-2.665,1.92-3.381C180.45,108.495,181.352,105.899,179.828,105.899"/>
			
				<linearGradient id="SVGID_44_" gradientUnits="userSpaceOnUse" x1="795" y1="-957.1006" x2="796" y2="-957.1006" gradientTransform="matrix(182.0825 0 0 -182.0825 -144659.3594 -174151.0938)">
				<stop  offset="0" style="stop-color:#8D878B"/>
				<stop  offset="0.0708" style="stop-color:#888286"/>
				<stop  offset="1" style="stop-color:#464345"/>
			</linearGradient>
			<path clip-path="url(#SVGID_1_)" fill="url(#SVGID_44_)" d="M190.972,117.121c-0.304,0-0.701,0.149-1.221,0.524
				c-2.613,1.883-2.136,2.974-2.136,2.974s0.128,1.907,2.333,2.582c0.194,0.06,0.369,0.087,0.526,0.087
				c1.631,0,1.396-2.953,1.419-3.732C191.894,119.556,192.195,117.121,190.972,117.121"/>
			
				<linearGradient id="SVGID_45_" gradientUnits="userSpaceOnUse" x1="795" y1="-957.124" x2="796" y2="-957.124" gradientTransform="matrix(182.0825 0 0 -182.0825 -144659.3594 -174151.0938)">
				<stop  offset="0" style="stop-color:#8D878B"/>
				<stop  offset="0.0708" style="stop-color:#888286"/>
				<stop  offset="1" style="stop-color:#464345"/>
			</linearGradient>
			<path clip-path="url(#SVGID_1_)" fill="url(#SVGID_45_)" d="M214.771,122.034c-0.669,0-1.192,0.388-0.809,1.834
				c0.795,3.006,1.932,3.058,2.01,3.058c0.002,0,0.004,0,0.004,0s0.267,0.082,0.676,0.082c0.661,0,1.694-0.215,2.57-1.338
				c1.42-1.818-1.923-2.791-2.711-3.121C216.511,122.549,215.543,122.034,214.771,122.034"/>
		</g>
	</g>
</g>
<g id="muchomor_x5F_czerwony">
</g>
</svg>
