<?xml version="1.0" encoding="utf-8"?>
<!-- Generator: Adobe Illustrator 16.0.4, SVG Export Plug-In . SVG Version: 6.00 Build 0)  -->
<!DOCTYPE svg PUBLIC "-//W3C//DTD SVG 1.1//EN" "http://www.w3.org/Graphics/SVG/1.1/DTD/svg11.dtd">
<svg version="1.1" xmlns="http://www.w3.org/2000/svg" xmlns:xlink="http://www.w3.org/1999/xlink" x="0px" y="0px" width="300px"
	 height="300px" viewBox="0 0 300 300" enable-background="new 0 0 300 300" xml:space="preserve">
<g id="Research" display="none">
	
		<image display="inline" overflow="visible" width="474" height="474" xlink:href="../../../../Downloads/d15b72d4d75df80c2d624179538faf6b.jpg"  transform="matrix(1 0 0 1 -165.4424 126.1543)">
	</image>
</g>
<g id="borowik_1_" display="none">
</g>
<g id="borowik_research" display="none">
	
		<image display="inline" overflow="visible" width="1280" height="1193" xlink:href="../../../../Downloads/borowik.jpg"  transform="matrix(1 0 0 1 -1104 -280)">
	</image>
</g>
<g id="muchomor_czerwony">
</g>
<g id="muchomor_x5F_czerwony">
	<g>
		<path fill="#B7B6B6" d="M94.994,277.902c-0.807-0.017-1.119-0.027-1.119-0.027s-133.107,5.805-60.39-174.705
			c0,0,36.819-94.858,130.708-67.24C258.082,63.549,188.95,138.491,249,145.926c76,16.741,30,131.971-26.25,131.971L94.994,277.902"
			/>
		<g>
			<defs>
				<path id="SVGID_52_" d="M94.994,277.902c-0.807-0.017-1.119-0.027-1.119-0.027s-133.107,5.805-60.39-174.705
					c0,0,36.819-94.858,130.708-67.24C258.082,63.549,188.95,138.491,249,145.926c76,16.741,30,131.971-26.25,131.971
					L94.994,277.902"/>
			</defs>
			<clipPath id="SVGID_1_">
				<use xlink:href="#SVGID_52_"  overflow="visible"/>
			</clipPath>
			<path clip-path="url(#SVGID_1_)" fill="#B7945F" d="M133.281,276.837c-41.187-36.603-28.775-112.059-28.775-112.059l32.725,1.407
				c0,0-14.951,22.244,0,52.088c5.912,11.803,14.383,20.435,22.465,26.558L133.281,276.837"/>
			
				<linearGradient id="SVGID_2_" gradientUnits="userSpaceOnUse" x1="444" y1="-956.9375" x2="445" y2="-956.9375" gradientTransform="matrix(-55.7163 -96.5035 -96.5035 55.7163 -67458.6562 96431.1562)">
				<stop  offset="0" style="stop-color:#B7945F"/>
				<stop  offset="0.0496" style="stop-color:#B18D5A"/>
				<stop  offset="0.3171" style="stop-color:#976B42"/>
				<stop  offset="0.5717" style="stop-color:#845331"/>
				<stop  offset="0.8058" style="stop-color:#794427"/>
				<stop  offset="1" style="stop-color:#753F23"/>
			</linearGradient>
			<path clip-path="url(#SVGID_1_)" fill="url(#SVGID_2_)" d="M103.03,180.135c-0.167,3.166-0.279,6.721-0.279,10.567
				c-0.001,16.23,1.983,37.657,10.175,56.966c4.095-1.411,8.492-2.178,13.067-2.178c0.23,0,0.461,0.002,0.691,0.006
				c1.873,0.035,3.717,0.211,5.52,0.492c4.601-5.094,11.187-8.333,18.545-8.555c0.139-0.004,0.277-0.007,0.416-0.009
				c-5.185-5.169-10.099-11.493-13.935-19.151c-4.979-9.938-6.642-19.033-6.645-26.746c-0.001-2.446,0.165-4.753,0.445-6.904
				C121.481,183.746,111.965,182.26,103.03,180.135"/>
			<path clip-path="url(#SVGID_1_)" fill="#80713A" d="M213.331,164.741c0.828,30.257-145.507,30.014-159.581-16.963
				L213.331,164.741"/>
			<path clip-path="url(#SVGID_1_)" fill="#615945" d="M53.75,147.778c0,0,17.18-34.798,67.476-35.031
				c50.295-0.236,91.276,24.215,92.105,51.018C214.159,190.567,67.824,189.393,53.75,147.778"/>
			
				<linearGradient id="SVGID_3_" gradientUnits="userSpaceOnUse" x1="444.0005" y1="-957" x2="445.0005" y2="-957" gradientTransform="matrix(159.5845 0 0 -159.5845 -70801.7578 -152575.0938)">
				<stop  offset="0" style="stop-color:#615945"/>
				<stop  offset="1" style="stop-color:#373823"/>
			</linearGradient>
			<path clip-path="url(#SVGID_1_)" fill="url(#SVGID_3_)" d="M121.948,112.745c-0.239,0-0.483,0.001-0.723,0.002
				C70.93,112.98,53.75,147.778,53.75,147.778c7.931,23.448,57.846,34.057,99.773,34.057c32.258,0,59.79-6.284,59.812-17.831
				c0-0.08-0.001-0.159-0.003-0.239C212.506,137.09,171.915,112.744,121.948,112.745"/>
			<path clip-path="url(#SVGID_1_)" fill="#B7945F" d="M197,231.59c0,0,2.5,25.95-20,38.426l31-6.487c0,0,6.75-5.489,1-32.687
				L197,231.59"/>
			
				<linearGradient id="SVGID_4_" gradientUnits="userSpaceOnUse" x1="444" y1="-957.2051" x2="445" y2="-957.2051" gradientTransform="matrix(-1.712342e-06 -39.1738 -39.1738 1.712342e-06 -37295.1953 17663.1816)">
				<stop  offset="0" style="stop-color:#B7945F"/>
				<stop  offset="0.0496" style="stop-color:#B18D5A"/>
				<stop  offset="0.3171" style="stop-color:#976B42"/>
				<stop  offset="0.5717" style="stop-color:#845331"/>
				<stop  offset="0.8058" style="stop-color:#794427"/>
				<stop  offset="1" style="stop-color:#753F23"/>
			</linearGradient>
			<path clip-path="url(#SVGID_1_)" fill="url(#SVGID_4_)" d="M196.652,240.116c-0.494,3.638-1.521,8.083-3.591,12.6
				c6.346,0.222,12.314,1.922,17.573,4.773c0.401-1.935,0.685-4.438,0.686-7.648c0-2.376-0.155-5.141-0.532-8.349
				C206.104,241.381,201.245,240.929,196.652,240.116"/>
			<path clip-path="url(#SVGID_1_)" fill="#615945" d="M174.5,228.146c0,0,6.644-13.662,26.092-13.755s35.296,9.509,35.616,20.032
				C236.528,244.949,179.942,244.487,174.5,228.146"/>
			
				<linearGradient id="SVGID_5_" gradientUnits="userSpaceOnUse" x1="444" y1="-957.0005" x2="445" y2="-957.0005" gradientTransform="matrix(-20.7803 -35.9925 -35.9925 20.7803 -25002.5273 36115.6523)">
				<stop  offset="0" style="stop-color:#615945"/>
				<stop  offset="1" style="stop-color:#373823"/>
			</linearGradient>
			<path clip-path="url(#SVGID_1_)" fill="url(#SVGID_5_)" d="M200.871,214.391c-0.092,0-0.187,0.001-0.279,0.001
				c-19.448,0.093-26.092,13.755-26.092,13.755c3.067,9.208,22.369,13.373,38.582,13.373c12.486,0,23.141-2.472,23.128-7.015
				c0-0.027,0-0.054-0.001-0.081C235.889,223.95,220.192,214.391,200.871,214.391"/>
			<path clip-path="url(#SVGID_1_)" fill="#734741" d="M231.035,286c-3.26-19-19.648-33.309-39.391-33.309
				c-5.408,0-10.564,0.949-15.27,2.891c-3.352-10.493-13.193-18.16-24.818-18.16c-7.683,0-14.584,3.287-19.353,8.566
				c-2.024-0.315-4.101-0.498-6.211-0.498C103.906,245.49,86,263.345,86,285.39c0,0.008,0-0.011,0-0.03c0-0.059,0-0.117,0,0.641
				H231.035"/>
			
				<radialGradient id="SVGID_6_" cx="444" cy="-957" r="1" gradientTransform="matrix(54.0881 0 0 -53.9853 -23856.5684 -51402.207)" gradientUnits="userSpaceOnUse">
				<stop  offset="0" style="stop-color:#B7B6B6"/>
				<stop  offset="1" style="stop-color:#A5787A"/>
			</radialGradient>
			<path clip-path="url(#SVGID_1_)" fill="url(#SVGID_6_)" d="M151.557,237.422c-0.13,0-0.261,0.001-0.391,0.003l0,0
				C151.295,237.423,151.426,237.422,151.557,237.422c11.625,0,21.467,7.667,24.818,18.16c4.705-1.941,9.861-2.891,15.27-2.891
				c0.475,0,0.946,0.008,1.417,0.024l0,0c-0.471-0.017-0.942-0.024-1.417-0.024c-5.408,0-10.564,0.949-15.27,2.891
				C173.023,245.088,163.182,237.422,151.557,237.422"/>
			
				<radialGradient id="SVGID_8_" cx="444" cy="-957" r="1" gradientTransform="matrix(54.0881 0 0 -53.9853 -23856.5684 -51402.207)" gradientUnits="userSpaceOnUse">
				<stop  offset="0" style="stop-color:#734741"/>
				<stop  offset="1" style="stop-color:#682F2B"/>
			</radialGradient>
			<path clip-path="url(#SVGID_1_)" fill="url(#SVGID_8_)" d="M151.557,237.422c-0.13,0-0.261,0.001-0.391,0.003l0,0
				c-0.139,0.002-0.277,0.005-0.416,0.009c-7.358,0.222-13.944,3.461-18.545,8.556c-1.803-0.282-3.647-0.458-5.52-0.493
				c-0.23-0.004-0.46-0.006-0.691-0.006c-19.442,0-35.645,13.833-39.246,32.183c2.549,0.185,4.526,0.224,5.745,0.224
				c0.897,0,1.383-0.021,1.383-0.021s0.312,0.011,1.119,0.027l127.756-0.006c1.96,0,3.907-0.14,5.837-0.41
				c-3.529-8.579-9.911-15.635-17.953-19.997c-5.258-2.852-11.227-4.552-17.573-4.773l0,0c-0.471-0.017-0.942-0.024-1.417-0.024
				c-5.408,0-10.564,0.949-15.27,2.891C173.023,245.089,163.182,237.422,151.557,237.422"/>
		</g>
	</g>
</g>
</svg>
