<?xml version="1.0" encoding="utf-8"?>
<!-- Generator: Adobe Illustrator 16.0.4, SVG Export Plug-In . SVG Version: 6.00 Build 0)  -->
<!DOCTYPE svg PUBLIC "-//W3C//DTD SVG 1.1//EN" "http://www.w3.org/Graphics/SVG/1.1/DTD/svg11.dtd">
<svg version="1.1" xmlns="http://www.w3.org/2000/svg" xmlns:xlink="http://www.w3.org/1999/xlink" x="0px" y="0px" width="300px"
	 height="300px" viewBox="0 0 300 300" enable-background="new 0 0 300 300" xml:space="preserve">
<g id="Research" display="none">
	
		<image display="inline" overflow="visible" width="564" height="796" xlink:href="../../../../Downloads/9c5a9406ead44956e601cba496dc8822.jpg"  transform="matrix(1 0 0 1 108 -509.0303)">
	</image>
</g>
<g id="borowik_1_" display="none">
	<rect x="108" y="-289" display="inline" fill="#2D440F" width="300" height="300"/>
</g>
<g id="borowik_research" display="none">
</g>
<g id="muchomor_czerwony">
</g>
<g id="muchomor_x5F_czerwony">
	<g>
		<path fill="#607849" d="M73.975,276h134.957c0,0,62.213-0.414,75.674-55.539c18.048-73.91-7.416-201.91-138.581-189.517
			c-32.017,1.033-84.992,24.086-77.993,77.792c7,53.704-22.024,38.614-38.549,79.926C12.957,229.974,45.3,276,73.975,276"/>
		<g>
			<defs>
				<path id="SVGID_60_" d="M73.975,276h134.957c0,0,62.213-0.414,75.674-55.539c18.048-73.91-7.416-201.91-138.581-189.517
					c-32.017,1.033-84.992,24.086-77.993,77.792c7,53.704-22.024,38.614-38.549,79.926C12.957,229.974,45.3,276,73.975,276"/>
			</defs>
			<clipPath id="SVGID_1_">
				<use xlink:href="#SVGID_60_"  overflow="visible"/>
			</clipPath>
			<path clip-path="url(#SVGID_1_)" fill="#E3D6DC" d="M147.316,135.667c-7.75,40.25-70.36,119.241,7.642,130.048l1.379,0.191
				l-0.796-0.11l1.337,0.185c78.001,10.808,66.908-79.916,52.438-120.313L147.316,135.667"/>
			
				<linearGradient id="SVGID_2_" gradientUnits="userSpaceOnUse" x1="108" y1="-956.9805" x2="109" y2="-956.9805" gradientTransform="matrix(5.734943e-06 -131.2002 131.2002 5.734943e-06 125726.5859 14436.502)">
				<stop  offset="0" style="stop-color:#E3D6DC"/>
				<stop  offset="0.2322" style="stop-color:#CEC2C8"/>
				<stop  offset="0.7085" style="stop-color:#999093"/>
				<stop  offset="1" style="stop-color:#756E70"/>
			</linearGradient>
			<path clip-path="url(#SVGID_1_)" fill="url(#SVGID_2_)" d="M142.626,151.294c-5.846,15.597-15.074,33.967-20.929,51.422
				c12.804,6.584,14.428,15.552,14.43,19.673c0,1.398-0.186,2.238-0.186,2.238s-1.788,4.086-14.166,5.039
				c4.356,6.91,9.209,13.458,10.782,19.611c9.426-3.548,23.518-7.693,37.891-7.693c12.066,0,24.331,2.92,34.206,11.569
				c11.057-11.89,14.995-30.118,15-49.063c0.002-11.306-1.399-22.868-3.525-33.484c-8.402-1.689-18.694-4.057-31.292-7.309l0,0
				l-13.545-3.992c-0.457-0.118-0.911-0.235-1.361-0.353C159.081,156.134,150.083,153.586,142.626,151.294"/>
			<path clip-path="url(#SVGID_1_)" fill="#5F432B" d="M171.291,159.305c-71.994-18.586-64.099-25.537-64.099-25.537
				s8.854-55.77,81.625-36.982l11.067,2.857c72.771,18.787,53.523,71.873,53.523,71.873s3.423,10.367-68.57-8.219L171.291,159.305"
				/>
			
				<linearGradient id="SVGID_3_" gradientUnits="userSpaceOnUse" x1="108.0005" y1="-956.3623" x2="109.0005" y2="-956.3623" gradientTransform="matrix(-16.3436 63.3207 -63.3207 -16.3436 -58638.3867 -22381.1953)">
				<stop  offset="0" style="stop-color:#607849"/>
				<stop  offset="0.0057" style="stop-color:#5F7748"/>
				<stop  offset="0.1419" style="stop-color:#4D5D37"/>
				<stop  offset="0.2911" style="stop-color:#3F4829"/>
				<stop  offset="0.4604" style="stop-color:#363A1F"/>
				<stop  offset="0.6647" style="stop-color:#30321A"/>
				<stop  offset="1" style="stop-color:#2E2F18"/>
			</linearGradient>
			<path clip-path="url(#SVGID_1_)" fill="url(#SVGID_3_)" d="M106.937,134.469c-0.002,1.751,3.434,6.907,35.69,16.825l0,0
				C110.379,141.378,106.936,136.222,106.937,134.469 M186.155,96.124c0.23,0.056,0.464,0.111,0.696,0.168
				C186.62,96.235,186.386,96.18,186.155,96.124 M185.592,95.991c0.125,0.029,0.25,0.059,0.375,0.089
				C185.841,96.05,185.717,96.021,185.592,95.991 M184.243,95.683c0.355,0.079,0.71,0.16,1.069,0.243
				C184.954,95.843,184.598,95.762,184.243,95.683 M176.016,94.121c2.625,0.405,5.341,0.918,8.166,1.548
				C181.357,95.039,178.641,94.526,176.016,94.121 M175.891,94.102c0.032,0.005,0.074,0.012,0.105,0.017
				C175.964,94.113,175.922,94.106,175.891,94.102"/>
			<g clip-path="url(#SVGID_1_)">
				<defs>
					<path id="SVGID_64_" d="M142.626,151.294L142.626,151.294c7.456,2.292,16.455,4.84,27.303,7.658
						C159.081,156.134,150.083,153.586,142.626,151.294"/>
				</defs>
				<clipPath id="SVGID_4_">
					<use xlink:href="#SVGID_64_"  overflow="visible"/>
				</clipPath>
				<g transform="matrix(1 0 0 1 1.525879e-05 0)" clip-path="url(#SVGID_4_)">
					
						<image overflow="visible" width="60" height="19" xlink:href="46418A9C599181B8.jpg"  transform="matrix(0.48 0 0 -0.48 142.0801 159.4805)">
					</image>
				</g>
			</g>
			
				<linearGradient id="SVGID_5_" gradientUnits="userSpaceOnUse" x1="108" y1="-957.8765" x2="109" y2="-957.8765" gradientTransform="matrix(-16.3436 63.3207 -63.3207 -16.3436 -58638.3867 -22381.1953)">
				<stop  offset="0" style="stop-color:#607849"/>
				<stop  offset="0.0057" style="stop-color:#5F7748"/>
				<stop  offset="0.1419" style="stop-color:#4D5D37"/>
				<stop  offset="0.2911" style="stop-color:#3F4829"/>
				<stop  offset="0.4604" style="stop-color:#363A1F"/>
				<stop  offset="0.6647" style="stop-color:#30321A"/>
				<stop  offset="1" style="stop-color:#2E2F18"/>
			</linearGradient>
			<path clip-path="url(#SVGID_1_)" fill="url(#SVGID_5_)" d="M216.128,170.605L216.128,170.605
				c14.295,2.875,23.123,3.793,28.574,3.793c6.544,0,8.215-1.324,8.613-2.177c-0.398,0.853-2.072,2.177-8.614,2.177
				C239.25,174.398,230.423,173.48,216.128,170.605"/>
			<g clip-path="url(#SVGID_1_)">
				<defs>
					<path id="SVGID_67_" d="M184.836,163.297c12.598,3.252,22.89,5.619,31.292,7.309l0,0
						C207.727,168.916,197.435,166.549,184.836,163.297"/>
				</defs>
				<clipPath id="SVGID_6_">
					<use xlink:href="#SVGID_67_"  overflow="visible"/>
				</clipPath>
				<g transform="matrix(1 0 0 1 0 0)" clip-path="url(#SVGID_6_)">
					
						<image overflow="visible" width="68" height="19" xlink:href="46418A9C599181BF.jpg"  transform="matrix(0.48 0 0 -0.48 184.3198 171.4805)">
					</image>
				</g>
			</g>
			
				<linearGradient id="SVGID_8_" gradientUnits="userSpaceOnUse" x1="108" y1="-956.999" x2="109" y2="-956.999" gradientTransform="matrix(-16.3436 63.3207 -63.3207 -16.3436 -58638.3867 -22381.1953)">
				<stop  offset="0" style="stop-color:#5F432B"/>
				<stop  offset="0.0272" style="stop-color:#5B4029"/>
				<stop  offset="0.1923" style="stop-color:#472F1D"/>
				<stop  offset="0.3807" style="stop-color:#392414"/>
				<stop  offset="0.6107" style="stop-color:#301D0F"/>
				<stop  offset="1" style="stop-color:#2E1B0E"/>
			</linearGradient>
			<path clip-path="url(#SVGID_1_)" fill="url(#SVGID_8_)" d="M161.166,92.918c-47.486,0.001-53.974,40.851-53.974,40.851
				s-0.255,0.225-0.255,0.7c0,1.753,3.443,6.909,35.69,16.825l0,0c7.456,2.292,16.455,4.84,27.303,7.658
				c0.451,0.117,0.904,0.234,1.361,0.353l13.545,3.992l0,0c12.598,3.252,22.89,5.619,31.292,7.309l0,0
				c14.295,2.875,23.122,3.793,28.573,3.793c6.542,0,8.216-1.324,8.614-2.177c0.189-0.405,0.09-0.705,0.09-0.705
				s18.764-51.748-50.795-71.142c-0.895-0.25-1.803-0.494-2.727-0.732l-11.067-2.857c-0.08-0.021-0.166-0.043-0.246-0.063
				c-0.581-0.148-1.147-0.29-1.719-0.43c-0.232-0.057-0.466-0.112-0.696-0.168c-0.061-0.014-0.127-0.03-0.188-0.044
				c-0.126-0.03-0.25-0.06-0.375-0.089c-0.095-0.022-0.185-0.043-0.28-0.065c-0.358-0.083-0.714-0.164-1.069-0.243
				c-0.017-0.004-0.044-0.01-0.061-0.014c-2.825-0.63-5.541-1.143-8.166-1.548c-0.008-0.001-0.012-0.002-0.02-0.003
				c-0.032-0.005-0.074-0.012-0.105-0.017C170.587,93.288,165.693,92.918,161.166,92.918"/>
			<path clip-path="url(#SVGID_1_)" fill="#E3D6DC" d="M118.316,223.776c10.384,19.528,32.5,36.396-11.912,49.915l-0.697,0.004
				c-40.588,0.287-35.746-29.903-25.639-49.576L118.316,223.776"/>
			
				<linearGradient id="SVGID_9_" gradientUnits="userSpaceOnUse" x1="108" y1="-957.0356" x2="109" y2="-957.0356" gradientTransform="matrix(28.3047 -49.0252 49.0252 28.3047 43948.543 32654.1484)">
				<stop  offset="0" style="stop-color:#E3D6DC"/>
				<stop  offset="0.1751" style="stop-color:#DED2D7"/>
				<stop  offset="0.3715" style="stop-color:#D1C5CA"/>
				<stop  offset="0.5783" style="stop-color:#BAB0B4"/>
				<stop  offset="0.7906" style="stop-color:#9B9296"/>
				<stop  offset="1" style="stop-color:#756E70"/>
			</linearGradient>
			<path clip-path="url(#SVGID_1_)" fill="url(#SVGID_9_)" d="M79.573,225.102c-3.685,7.43-6.553,16.215-6.546,24.26
				c0.005,6.016,1.616,11.617,5.694,15.925c3.733-7.42,10.781-15.626,23.697-15.626c5.207,0,11.367,1.333,18.649,4.59
				c0,0,4.44-2.319,11.491-4.973c-1.573-6.153-6.426-12.701-10.782-19.611c-1.631,0.125-3.447,0.196-5.466,0.196
				C107.994,229.862,96.218,228.659,79.573,225.102"/>
			<path clip-path="url(#SVGID_1_)" fill="#5F432B" d="M61.439,220.764c0,0,0.573-28.675,39.068-24.318
				c40.316,6.153,35.434,28.182,35.434,28.182S129.817,238.666,61.439,220.764"/>
			
				<linearGradient id="SVGID_10_" gradientUnits="userSpaceOnUse" x1="108" y1="-957" x2="109" y2="-957" gradientTransform="matrix(22.9038 -39.6706 39.6706 22.9038 35580.1758 26440.0859)">
				<stop  offset="0" style="stop-color:#5F432B"/>
				<stop  offset="0.0272" style="stop-color:#5B4029"/>
				<stop  offset="0.1923" style="stop-color:#472F1D"/>
				<stop  offset="0.3807" style="stop-color:#392414"/>
				<stop  offset="0.6107" style="stop-color:#301D0F"/>
				<stop  offset="1" style="stop-color:#2E1B0E"/>
			</linearGradient>
			<path clip-path="url(#SVGID_1_)" fill="url(#SVGID_10_)" d="M92.909,195.995c-30.972,0.001-31.469,24.769-31.469,24.769
				c26.626,6.972,43.808,9.099,54.87,9.099c17.344,0,19.632-5.235,19.632-5.235s0.186-0.84,0.186-2.238
				c-0.001-4.121-1.626-13.089-14.43-19.673c-5.093-2.619-11.957-4.861-21.189-6.271C97.79,196.138,95.262,195.995,92.909,195.995"
				/>
			<path clip-path="url(#SVGID_1_)" fill="#754C24" d="M219.816,277h-145c0,0,6-40.75,46.25-22.75
				C121.066,254.25,198.149,214,219.816,277"/>
			
				<radialGradient id="SVGID_11_" cx="108" cy="-957" r="1" gradientTransform="matrix(-52.7723 0 0 -52.7723 5846.7168 -50243.7734)" gradientUnits="userSpaceOnUse">
				<stop  offset="0" style="stop-color:#754C24"/>
				<stop  offset="1" style="stop-color:#3A2612"/>
			</radialGradient>
			<path clip-path="url(#SVGID_1_)" fill="url(#SVGID_11_)" d="M170.448,241.584c-14.373,0-28.464,4.146-37.891,7.693
				c-7.051,2.653-11.491,4.973-11.491,4.973c-7.282-3.257-13.442-4.59-18.649-4.59c-12.916,0-19.964,8.206-23.697,15.626
				c-2.298,4.568-3.34,8.839-3.721,10.714h133.932c0,0,3.995-0.026,10.179-0.963C209.332,248.971,189.638,241.583,170.448,241.584"
				/>
		</g>
	</g>
</g>
</svg>
